<svg width="24" height="24" viewBox="0 0 24 24" fill="none" xmlns="http://www.w3.org/2000/svg">
<path d="M22 10.485V19C22 21.757 19.757 24 17 24H7C4.243 24 2 21.757 2 19V5C2 2.243 4.243 0 7 0V2C7 2.552 7.447 3 8 3C8.553 3 9 2.552 9 2V0H11.515C11.678 0 11.839 0.013 12 0.024V7C12 8.654 13.346 10 15 10H21.976C21.987 10.161 22 10.322 22 10.485ZM7 6C7 6.552 7.447 7 8 7C8.553 7 9 6.552 9 6V5C9 4.448 8.553 4 8 4C7.447 4 7 4.448 7 5V6ZM7 10C7 10.552 7.447 11 8 11C8.553 11 9 10.552 9 10V9C9 8.448 8.553 8 8 8C7.447 8 7 8.448 7 9V10ZM10.044 15.481L9.287 12.957C9.116 12.389 8.593 11.999 8 11.999C7.407 11.999 6.883 12.388 6.713 12.957L5.956 15.481C5.729 16.238 6.296 17 7.086 17H8.915C9.705 17 10.272 16.238 10.045 15.481H10.044Z" fill="url(#paint0_linear_10986_104755)"/>
<path d="M14 0.459961V6.99996C14 7.55096 14.448 7.99996 15 7.99996H21.54C21.194 7.08696 20.661 6.24696 19.949 5.53596L16.465 2.04996C15.753 1.33896 14.913 0.805961 14 0.459961Z" fill="url(#paint1_linear_10986_104755)"/>
<defs>
<linearGradient id="paint0_linear_10986_104755" x1="2" y1="0" x2="25.6066" y2="19.6721" gradientUnits="userSpaceOnUse">
<stop stop-color="#60A5FA"/>
<stop offset="1" stop-color="#2563EB"/>
</linearGradient>
<linearGradient id="paint1_linear_10986_104755" x1="14" y1="0.459961" x2="21.54" y2="7.99996" gradientUnits="userSpaceOnUse">
<stop stop-color="#BFDBFE"/>
<stop offset="1" stop-color="#60A5FA"/>
</linearGradient>
</defs>
</svg>
