<svg width="24" height="24" viewBox="0 0 24 24" fill="none" xmlns="http://www.w3.org/2000/svg">
<g clip-path="url(#clip0_5015_177832)">
<path d="M12.0004 0C10.7674 0 9.79102 1.00083 9.79102 2.20941V3.71564C9.79102 4.92595 10.7693 5.92505 12.0004 5.92505C13.2107 5.92505 14.2098 4.94677 14.2098 3.71564V2.20941C14.2098 0.994641 13.2277 0 12.0004 0Z" fill="#3B82F6"/>
<path d="M12.0004 18.0752C10.7901 18.0752 9.79102 19.0535 9.79102 20.2846V21.7908C9.79102 23.0056 10.7732 24.0002 12.0004 24.0002C13.2334 24.0002 14.2098 22.9994 14.2098 21.7908V20.2846C14.2098 19.0743 13.2315 18.0752 12.0004 18.0752Z" fill="#93C5FD"/>
<path d="M21.7908 9.79053H20.2846C19.0743 9.79053 18.0752 10.7688 18.0752 11.9999C18.0752 13.2102 19.0535 14.2093 20.2846 14.2093H21.7908C23.0056 14.2093 24.0002 13.2272 24.0002 11.9999C24.0002 10.7669 22.9994 9.79053 21.7908 9.79053Z" fill="#60A5FA"/>
<path d="M5.925 11.9991C5.925 10.7813 4.9342 9.79053 3.71639 9.79053H2.20941C0.994641 9.79053 0 10.7727 0 11.9999C0 13.2329 1.00083 14.2093 2.20941 14.2093H3.71564C4.93345 14.2093 5.925 13.2246 5.925 11.9991Z" fill="#BFDBFE"/>
<path d="M16.3138 7.7228C17.1754 8.57977 18.5591 8.56547 19.406 7.71835L20.4856 6.63877C21.3465 5.77796 21.3465 4.37682 20.4858 3.51549C20.4804 3.51005 20.4749 3.50472 20.4693 3.4995C19.5961 2.64296 18.2087 2.66625 17.3603 3.51493L16.3084 4.5668C15.4401 5.43568 15.4402 6.8491 16.3086 7.7176L16.3138 7.7228Z" fill="#3B82F6"/>
<path d="M7.71704 16.309C6.84863 15.4407 5.43516 15.4405 4.5661 16.309L3.51437 17.3608C2.66696 18.208 2.63612 19.6072 3.51432 20.4854C4.39248 21.3635 5.79169 21.3327 6.63887 20.4854L7.71769 19.4065L7.71774 19.4065C8.56327 18.5611 8.5808 17.1775 7.72215 16.3142L7.71704 16.309Z" fill="#93C5FD"/>
<path d="M19.4061 16.2819C18.5606 15.4363 17.177 15.419 16.3137 16.2775L16.3085 16.2826C15.4401 17.1511 15.4401 18.5645 16.3086 19.4335L17.3603 20.4853C18.2078 21.3329 19.595 21.3584 20.4693 20.5007C20.4749 20.4955 20.4804 20.4902 20.4858 20.4848C21.3465 19.6234 21.3465 18.2223 20.4856 17.3615L19.4061 16.2819Z" fill="#60A5FA"/>
<path d="M4.58007 7.70467C5.44144 8.56651 6.84254 8.56576 7.70499 7.70387C8.5659 6.84235 8.56557 5.44117 7.70471 4.58087C7.36191 4.23774 6.9819 3.85768 6.63919 3.51498C5.79198 2.66757 4.40466 2.64165 3.53016 3.49951C3.52457 3.50474 3.51907 3.51007 3.51366 3.51549C2.65294 4.37682 2.65299 5.77796 3.51385 6.63878C3.85683 6.98176 4.23708 7.36201 4.58007 7.70467Z" fill="#DBEAFE"/>
</g>
<defs>
<clipPath id="clip0_5015_177832">
<rect width="24" height="24" fill="white"/>
</clipPath>
</defs>
</svg>
