<svg width="24" height="24" viewBox="0 0 24 24" fill="none" xmlns="http://www.w3.org/2000/svg">
<path d="M12.0273 0H11.9727C5.36036 0 0 5.36035 0 11.9727V12.0273C0 18.6397 5.36036 24 11.9727 24H12.0273C18.6396 24 24 18.6397 24 12.0273V11.9727C24 5.36035 18.6396 0 12.0273 0Z" fill="#007EBB"/>
<path d="M5.72338 7.97796C5.40723 7.6845 5.25 7.32126 5.25 6.88907C5.25 6.45688 5.40807 6.07766 5.72338 5.78337C6.03954 5.48992 6.4465 5.34277 6.94512 5.34277C7.44373 5.34277 7.83473 5.48992 8.15004 5.78337C8.4662 6.07682 8.62342 6.44595 8.62342 6.88907C8.62342 7.33219 8.46536 7.6845 8.15004 7.97796C7.83389 8.27141 7.4328 8.41855 6.94512 8.41855C6.45743 8.41855 6.03954 8.27141 5.72338 7.97796ZM8.35773 9.66131V18.6583H5.51486V9.66131H8.35773Z" fill="white"/>
<path d="M17.8209 10.55C18.4406 11.2227 18.75 12.1459 18.75 13.3214V18.4993H16.0501V13.6863C16.0501 13.0936 15.8962 12.6328 15.5893 12.3048C15.2824 11.9769 14.8687 11.8121 14.3508 11.8121C13.8328 11.8121 13.4191 11.9761 13.1122 12.3048C12.8053 12.6328 12.6514 13.0936 12.6514 13.6863V18.4993H9.93555V9.63603H12.6514V10.8115C12.9264 10.4197 13.2972 10.1103 13.763 9.8824C14.2289 9.65453 14.7527 9.54102 15.3354 9.54102C16.373 9.54102 17.202 9.87735 17.8209 10.55Z" fill="white"/>
</svg>
