<svg width="64" height="64" viewBox="0 0 64 64" fill="none" xmlns="http://www.w3.org/2000/svg">
<g clip-path="url(#clip0_11769_405307)">
<path d="M64 31.9998C64 49.6731 49.6734 63.9998 32 63.9998C28.1704 63.9998 24.4975 63.3269 21.0938 62.093C13.5875 59.3723 7.38875 53.923 3.69625 46.943C3.00787 45.6403 2.40996 44.2918 1.90675 42.907V42.906C0.672875 39.5023 0 35.8294 0 31.9998C0 14.3264 14.3266 -0.000244141 32 -0.000244141C49.6734 -0.000244141 64 14.3264 64 31.9998Z" fill="#DBEAFE"/>
<mask id="mask0_11769_405307" style="mask-type:alpha" maskUnits="userSpaceOnUse" x="0" y="-1" width="64" height="65">
<path d="M64 31.9993C64 49.6726 49.6734 63.9993 32 63.9993C28.1704 63.9993 24.4975 63.3264 21.0938 62.0925C13.5875 59.3718 7.38875 53.9225 3.69625 46.9425C3.00787 45.6398 2.40996 44.2913 1.90675 42.9065V42.9055C0.672875 39.5018 0 35.8289 0 31.9993C0 14.3259 14.3266 -0.000732422 32 -0.000732422C49.6734 -0.000732422 64 14.3259 64 31.9993Z" fill="#DBEAFE"/>
</mask>
<g mask="url(#mask0_11769_405307)">
<path d="M47.3858 11.7936C47.2171 11.5489 46.9915 11.3488 46.7284 11.2105C46.4652 11.0722 46.1725 10.9999 45.8752 10.9998H26.167C23.1347 10.9998 20.667 13.4675 20.667 16.4998V17.9278C20.7385 17.9922 20.8207 18.0416 20.8885 18.1114L28.2221 25.4446C29.2614 26.4823 29.8334 27.8646 29.8334 29.333C29.8334 30.8016 29.2614 32.184 28.2221 33.2216L20.8885 40.5549C20.8207 40.6228 20.7385 40.6723 20.667 40.7382V43.9998C20.667 47.0321 23.1347 49.4998 26.167 49.4998H32.5834C33.3445 49.4998 34.0263 49.0305 34.2958 48.3191L47.5876 13.4859C47.8037 12.923 47.7268 12.2905 47.3858 11.7936Z" fill="#1D4ED8"/>
<path d="M16.2977 38.3605C15.9631 38.2213 15.6771 37.9861 15.4759 37.6847C15.2746 37.3833 15.1671 37.029 15.1668 36.6666V31.1666H7.83322C6.82148 31.1666 6 30.3451 6 29.333C6 28.3213 6.82148 27.4998 7.83322 27.4998H15.1668V21.9998C15.1671 21.6373 15.2746 21.2831 15.4758 20.9817C15.6771 20.6802 15.9631 20.4451 16.2977 20.306C16.6328 20.1671 17.0015 20.1307 17.3573 20.2015C17.713 20.2723 18.0398 20.4471 18.2961 20.7037L25.6293 28.0369C26.3464 28.754 26.3464 29.9124 25.6293 30.6291L18.2961 37.9627C18.0397 38.2192 17.713 38.3939 17.3573 38.4648C17.0015 38.5356 16.6328 38.4993 16.2977 38.3605Z" fill="#EC4899"/>
<path d="M45.1655 11.1813L34.1511 14.8535C32.6644 15.3668 31.667 16.7656 31.667 18.333V51.333C31.667 53.3552 33.3112 54.9998 35.3334 54.9998C35.7258 54.9998 36.0981 54.943 36.5013 54.8182L47.5161 51.1461C49.0028 50.6328 50.0002 49.234 50.0002 47.6665V14.6665C50.0002 12.2519 47.6517 10.4167 45.1655 11.1813Z" fill="#3B82F6"/>
</g>
</g>
<defs>
<clipPath id="clip0_11769_405307">
<rect width="64" height="64" fill="white"/>
</clipPath>
</defs>
</svg>
