<svg width="64" height="64" viewBox="0 0 64 64" fill="none" xmlns="http://www.w3.org/2000/svg">
<g clip-path="url(#clip0_11769_405289)">
<path d="M64 31.9998C64 49.6731 49.6734 63.9998 32 63.9998C28.1704 63.9998 24.4975 63.3269 21.0938 62.093C13.5875 59.3723 7.38875 53.923 3.69625 46.943C3.00787 45.6403 2.40996 44.2918 1.90675 42.907V42.906C0.672875 39.5023 0 35.8294 0 31.9998C0 14.3264 14.3266 -0.000244141 32 -0.000244141C49.6734 -0.000244141 64 14.3264 64 31.9998Z" fill="#DCFCE7"/>
<mask id="mask0_11769_405289" style="mask-type:alpha" maskUnits="userSpaceOnUse" x="0" y="-1" width="64" height="65">
<path d="M64 31.9993C64 49.6726 49.6734 63.9993 32 63.9993C28.1704 63.9993 24.4975 63.3264 21.0938 62.0925C13.5875 59.3718 7.38875 53.9225 3.69625 46.9425C3.00787 45.6398 2.40996 44.2913 1.90675 42.9065V42.9055C0.672875 39.5018 0 35.8289 0 31.9993C0 14.3259 14.3266 -0.000732422 32 -0.000732422C49.6734 -0.000732422 64 14.3259 64 31.9993Z" fill="#DBEAFE"/>
</mask>
<g mask="url(#mask0_11769_405289)">
<path d="M46 25.9998V43.9998C49.3137 43.9998 52 41.3134 52 37.9998V17.9998C52 14.6861 49.3137 11.9998 46 11.9998H26C22.6863 11.9998 20 14.6861 20 17.9998H38C42.4181 17.9998 46 21.5817 46 25.9998Z" fill="#15803D"/>
<path fill-rule="evenodd" clip-rule="evenodd" d="M12 45.9998C12 49.3134 14.6863 51.9998 18 51.9998H38C41.3137 51.9998 44 49.3134 44 45.9998V25.9998C44 22.6861 41.3137 19.9998 38 19.9998H18C14.6863 19.9998 12 22.6861 12 25.9998V45.9998ZM20 35.9998C20 35.4693 20.2107 34.9606 20.5858 34.5855C20.9609 34.2105 21.4696 33.9998 22 33.9998H26V29.9998C26 29.7371 26.0517 29.477 26.1522 29.2344C26.2528 28.9917 26.4001 28.7713 26.5858 28.5855C26.7715 28.3998 26.992 28.2525 27.2346 28.152C27.4773 28.0515 27.7374 27.9998 28 27.9998C28.2626 27.9998 28.5227 28.0515 28.7654 28.152C29.008 28.2525 29.2285 28.3998 29.4142 28.5855C29.5999 28.7713 29.7472 28.9917 29.8478 29.2344C29.9483 29.477 30 29.7371 30 29.9998V33.9998H34C34.5304 33.9998 35.0391 34.2105 35.4142 34.5855C35.7893 34.9606 36 35.4693 36 35.9998C36 36.5302 35.7893 37.0389 35.4142 37.414C35.0391 37.789 34.5304 37.9998 34 37.9998H30V41.9998C30 42.2624 29.9483 42.5225 29.8478 42.7651C29.7472 43.0078 29.5999 43.2283 29.4142 43.414C29.2285 43.5997 29.008 43.747 28.7654 43.8475C28.5227 43.948 28.2626 43.9998 28 43.9998C27.7374 43.9998 27.4773 43.948 27.2346 43.8475C26.992 43.747 26.7715 43.5997 26.5858 43.414C26.4001 43.2283 26.2528 43.0078 26.1522 42.7651C26.0517 42.5225 26 42.2624 26 41.9998V37.9998H22C21.4696 37.9998 20.9609 37.789 20.5858 37.414C20.2107 37.0389 20 36.5302 20 35.9998Z" fill="#22C55E"/>
</g>
</g>
<defs>
<clipPath id="clip0_11769_405289">
<rect width="64" height="64" fill="white"/>
</clipPath>
</defs>
</svg>
