<svg width="128" height="128" viewBox="0 0 128 128" fill="none" xmlns="http://www.w3.org/2000/svg">
<circle cx="64" cy="64" r="64" fill="#DBEAFE"/>
<path d="M55.5889 0.547852V127.452C24.2181 123.333 0.000976562 96.4947 0.000976562 64C0.000976562 31.5052 24.2181 4.66659 55.5889 0.547852Z" fill="#BFDBFE"/>
<path d="M100.52 38.1241C101.178 38.6793 102.026 38.9585 102.885 38.9035C103.745 38.8486 104.55 38.4636 105.132 37.8291C105.714 37.1945 106.029 36.3595 106.01 35.4985C105.991 34.6375 105.641 33.817 105.031 33.2085C105.737 33.0125 106.363 32.5993 106.821 32.0276C107.279 31.4558 107.546 30.7545 107.583 30.0228C107.621 29.2912 107.427 28.5663 107.029 27.9509C106.632 27.3355 106.051 26.8607 105.369 26.5938C105.705 25.9561 105.87 25.2423 105.849 24.5218C105.827 23.8013 105.62 23.0986 105.246 22.482C104.873 21.8654 104.346 21.356 103.718 21.0032C103.089 20.6505 102.38 20.4664 101.659 20.4688C101.29 19.4884 100.604 18.6594 99.7102 18.1136C98.8162 17.5677 97.7654 17.3364 96.7248 17.4564C96.183 16.9913 95.5064 16.7121 94.7943 16.6598C94.0822 16.6076 93.3721 16.7849 92.7682 17.1659C92.1643 17.547 91.6985 18.1115 91.4391 18.7767C91.1797 19.442 91.1404 20.1729 91.3269 20.8621" fill="#263238"/>
<path d="M94.4313 19.9492L95.0657 20.3202C98.1521 22.1241 100.446 25.024 101.491 28.4427C102.536 31.8614 102.255 35.5483 100.705 38.7694C97.7108 44.9834 94.3274 51.8096 92.428 54.9704C88.4918 61.5109 81.2984 58.6802 81.2984 58.6802L77.2175 66.9273L68.4771 68.6783L61.5137 57.0776L76.8911 27.5322C80.3116 20.3462 87.3381 16.3432 94.4313 19.9492Z" fill="#FFC4C3"/>
<path d="M81.2997 58.6841C81.2997 58.6841 77.0037 56.499 74.2028 51.1309C74.2028 51.1309 73.5387 57.1297 80.4613 60.3833L81.2997 58.6841Z" fill="#FFA8A7"/>
<path d="M101.837 35.3822C101.837 35.3822 102.512 30.2366 101.095 28.1109C99.3663 25.5362 96.7843 27.5729 94.8626 25.5882C92.9409 23.6034 91.2937 21.1363 87.9103 21.5444C84.2004 21.9822 84.6122 24.0486 82.7424 26.8829C75.1669 38.3612 71.0415 40.4462 73.6904 34.503C73.9797 33.85 72.5774 32.3735 73.8276 29.6393C75.4637 26.0964 77.7118 21.9525 79.8524 19.9937C81.6554 18.3576 83.6105 17.6379 86.5525 17.3114C91.1972 16.7921 95.6713 19.3407 98.5131 21.3923C101.355 23.4439 105.135 30.3739 101.837 35.3822Z" fill="#263238"/>
<path d="M74.21 34.5694C74.3432 34.3227 74.4249 34.0517 74.4504 33.7726C74.4758 33.4935 74.4444 33.2121 74.3581 32.9454C74.2717 32.6788 74.1323 32.4324 73.948 32.2212C73.7638 32.01 73.5387 31.8383 73.2863 31.7165C71.9878 31.1118 70.2108 31.0116 68.8085 33.5974C66.3154 38.1902 71.4388 39.7409 71.5167 39.6148C71.5946 39.4887 73.1824 36.4948 74.21 34.5694Z" fill="#FFC4C3"/>
<path d="M71.4579 37.3482C71.4579 37.3223 71.3466 37.3482 71.1796 37.3482C70.9452 37.3269 70.7283 37.2152 70.575 37.0366C70.204 36.5951 70.2039 35.6046 70.6232 34.7625C70.8244 34.3639 71.1121 34.0154 71.4653 33.7423C71.5861 33.622 71.7343 33.5328 71.8971 33.4824C72.0599 33.432 72.2326 33.4219 72.4002 33.4529C72.5054 33.478 72.5984 33.5393 72.6628 33.6262C72.7273 33.713 72.7591 33.8198 72.7526 33.9278C72.7526 34.091 72.6673 34.1652 72.6858 34.1874C72.7044 34.2097 72.8268 34.1652 72.8936 33.9537C72.9269 33.8306 72.9177 33.7 72.8676 33.5827C72.8337 33.4993 72.7834 33.4234 72.7197 33.3597C72.6559 33.296 72.5801 33.2457 72.4967 33.2117C72.288 33.1469 72.0662 33.1368 71.8525 33.1822C71.6388 33.2277 71.4403 33.3273 71.2761 33.4714C70.867 33.7585 70.5335 34.1404 70.3041 34.5844C69.833 35.5267 69.8367 36.6471 70.3969 37.1999C70.4999 37.3025 70.6249 37.3805 70.7624 37.4281C70.8999 37.4756 71.0463 37.4915 71.1908 37.4744C71.3874 37.4521 71.469 37.3631 71.4579 37.3482Z" fill="#FFA8A7"/>
<path d="M79.4031 25.8924C79.7518 26.6344 80.145 27.4061 80.7943 27.8883C81.4435 28.3706 82.5008 28.4374 83.0202 27.8067C83.2539 27.5248 83.3912 27.1167 83.7399 26.9943C84.1554 26.8496 84.556 27.2057 84.9085 27.4654C86.1402 28.3706 88.5145 27.8364 89.594 26.742C89.624 27.0854 89.7832 27.4046 90.0393 27.6352C90.2954 27.8659 90.6295 27.9908 90.9741 27.9848C91.5395 27.9719 92.0982 27.8602 92.625 27.6546C93.2854 27.432 94.0793 27.3541 94.6246 27.7845C94.9288 28.0293 95.1255 28.4077 95.4779 28.5747C96.1011 28.8677 96.7949 28.3446 97.229 27.8104C97.663 27.2762 98.1304 26.6307 98.8205 26.6047C99.4549 26.5787 99.9594 27.1018 100.457 27.5025C100.954 27.9032 101.733 28.1851 102.182 27.7325C102.289 27.6035 102.368 27.4542 102.416 27.2935C102.464 27.1328 102.479 26.9642 102.46 26.7976C102.412 26.0384 102.109 25.3176 101.601 24.7515C101.093 24.1854 100.409 23.8071 99.6589 23.6776C99.8753 22.7979 99.8261 21.8738 99.5174 21.0221C99.2087 20.1703 98.6545 19.4292 97.9247 18.8924C97.1949 18.3556 96.3224 18.0472 95.4174 18.0062C94.5124 17.9652 93.6155 18.1933 92.8402 18.6619C92.6151 17.9485 92.2213 17.2998 91.6921 16.771C91.163 16.2422 90.5141 15.8488 89.8005 15.6242C89.0869 15.3995 88.3297 15.3503 87.593 15.4806C86.8564 15.611 86.162 15.9171 85.5689 16.3729C85.1014 15.9082 84.508 15.5907 83.8619 15.46C83.2159 15.3293 82.5457 15.3909 81.9343 15.6374C81.323 15.8838 80.7974 16.3042 80.4226 16.8464C80.0478 17.3886 79.8404 18.0289 79.826 18.6879C78.7427 18.6879 77.5815 19.0588 77.0176 19.9974C76.4537 20.936 76.821 22.3792 77.8635 22.6611C77.434 22.9071 77.1198 23.3136 76.99 23.7912C76.8603 24.2689 76.9256 24.7785 77.1716 25.208C77.4175 25.6374 77.8241 25.9516 78.3017 26.0814C78.7793 26.2111 79.2889 26.1458 79.7184 25.8998" fill="#263238"/>
<path d="M99.2327 25.1988C99.2327 25.1988 99.2327 25.2322 99.1808 25.2804C99.1289 25.3286 99.0918 25.414 99.0139 25.5067C98.7739 25.7753 98.492 26.0033 98.1791 26.1819C97.682 26.4659 97.1258 26.631 96.5542 26.6642C95.7958 26.72 95.0401 26.5258 94.4025 26.1114L94.536 26.0558C94.4321 26.545 94.1386 26.9732 93.7199 27.2466C93.2806 27.5333 92.802 27.7545 92.299 27.9033C92.0395 28.0064 91.7696 28.081 91.4939 28.1259C91.1964 28.1481 90.8981 28.0958 90.6259 27.9738C90.3372 27.857 90.0817 27.6711 89.8818 27.4324C89.6819 27.1937 89.5437 26.9095 89.4795 26.6048L89.6761 26.6568C89.3378 27.0849 88.914 27.438 88.4318 27.6934C87.9496 27.9489 87.4194 28.1012 86.8752 28.1407C86.2619 28.2108 85.6425 28.0807 85.1093 27.7697C84.6231 27.4536 84.194 27.0572 83.8405 26.5974H83.9926C83.4393 27.0059 82.7928 27.2699 82.1117 27.3653C81.7908 27.4236 81.4609 27.4099 81.1459 27.3252C80.8309 27.2406 80.5386 27.087 80.2901 26.8756C79.8768 26.4965 79.5832 26.0048 79.4455 25.4611C79.3077 24.9174 79.3318 24.3452 79.5148 23.815L79.589 23.9226C78.9675 23.8957 78.3742 23.656 77.9084 23.2437C77.5571 22.942 77.2836 22.5603 77.1108 22.1307C77.0017 21.8614 76.9401 21.5752 76.929 21.2849C76.9245 21.1842 76.932 21.0833 76.9513 20.9844C76.9624 21.367 77.0442 21.7444 77.1924 22.0973C77.3742 22.5039 77.6471 22.8631 77.99 23.1472C78.439 23.5283 79.0041 23.7454 79.5927 23.7631H79.704L79.6669 23.8707C79.5015 24.3676 79.4836 24.9018 79.6153 25.4087C79.7469 25.9156 80.0226 26.3736 80.4089 26.7272C80.6362 26.9184 80.9036 27.056 81.1913 27.1298C81.479 27.2037 81.7796 27.2119 82.0709 27.1539C82.7142 27.0568 83.3234 26.8019 83.8442 26.4119L83.9258 26.3488L83.9963 26.4267C84.3362 26.8624 84.7461 27.2386 85.2094 27.5397C85.7014 27.8298 86.2743 27.9522 86.8418 27.8884C87.3565 27.8504 87.8576 27.7053 88.3131 27.4626C88.7685 27.2198 89.1683 26.8847 89.4869 26.4787L89.639 26.2821L89.6835 26.5269C89.7411 26.7957 89.8635 27.0464 90.04 27.2572C90.2165 27.468 90.4418 27.6325 90.6963 27.7363C90.9359 27.8446 91.1982 27.893 91.4606 27.8773C91.7144 27.8337 91.963 27.7641 92.2025 27.6696C92.6879 27.5313 93.1504 27.3225 93.5752 27.05C93.9536 26.8055 94.2202 26.4215 94.3172 25.9816L94.3431 25.8517L94.4544 25.9259C95.0573 26.3284 95.7748 26.5237 96.4986 26.4824C97.0518 26.4602 97.5931 26.3144 98.0827 26.0558C98.5136 25.8402 98.903 25.5501 99.2327 25.1988Z" fill="#A855F7"/>
<path d="M94.0609 43.3401C93.9901 43.4641 93.8955 43.573 93.7825 43.6605C93.6696 43.7479 93.5405 43.8123 93.4027 43.8498C93.2649 43.8874 93.121 43.8974 92.9793 43.8793C92.8376 43.8613 92.7009 43.8154 92.5769 43.7445C92.4526 43.6827 92.3419 43.5968 92.2512 43.4918C92.1606 43.3867 92.0918 43.2646 92.049 43.1326C92.0061 43.0006 91.9901 42.8614 92.0017 42.7231C92.0134 42.5848 92.0525 42.4502 92.1169 42.3273C92.1877 42.2032 92.2823 42.0944 92.3953 42.0069C92.5082 41.9194 92.6373 41.8551 92.7751 41.8175C92.9129 41.78 93.0568 41.77 93.1985 41.788C93.3401 41.8061 93.4769 41.852 93.6008 41.9229C93.7251 41.9846 93.8359 42.0705 93.9265 42.1756C94.0172 42.2807 94.086 42.4028 94.1288 42.5348C94.1717 42.6668 94.1877 42.806 94.1761 42.9443C94.1644 43.0826 94.1252 43.2171 94.0609 43.3401Z" fill="#263238"/>
<path d="M98.0421 41.4404C97.8529 41.4923 97.4597 40.5463 96.4506 39.9564C95.4415 39.3666 94.4101 39.4185 94.373 39.2145C94.373 39.1254 94.6031 38.977 95.0631 38.9362C95.6785 38.8938 96.2919 39.0442 96.8179 39.3666C97.3411 39.677 97.7518 40.1461 97.9902 40.7058C98.1571 41.1362 98.1311 41.4181 98.0421 41.4404Z" fill="#263238"/>
<path d="M82.4981 44.5345C82.6761 44.6198 82.3497 45.5918 82.717 46.7048C83.0842 47.8177 83.9041 48.4521 83.8077 48.6154C83.7668 48.697 83.4812 48.645 83.1065 48.3742C82.6153 47.9979 82.2515 47.4799 82.064 46.8903C81.8745 46.3105 81.8745 45.6855 82.064 45.1058C82.2124 44.6866 82.4164 44.49 82.4981 44.5345Z" fill="#263238"/>
<path d="M84.8454 38.558C84.7019 38.8029 84.4682 38.982 84.1944 39.0568C83.9205 39.1317 83.6282 39.0965 83.38 38.9587C83.2557 38.897 83.145 38.8111 83.0544 38.7059C82.9638 38.6008 82.8953 38.4785 82.8527 38.3464C82.8102 38.2143 82.7946 38.075 82.8067 37.9368C82.8189 37.7985 82.8587 37.6641 82.9237 37.5415C83.0666 37.2969 83.2994 37.1178 83.5724 37.0423C83.8454 36.9668 84.1371 37.0008 84.3854 37.1371C84.5102 37.1988 84.6214 37.2849 84.7123 37.3902C84.8033 37.4956 84.8723 37.6181 84.9152 37.7505C84.9581 37.883 84.974 38.0226 84.962 38.1613C84.95 38.3 84.9104 38.4349 84.8454 38.558Z" fill="#263238"/>
<path d="M88.0552 35.775C87.866 35.827 87.469 34.8773 86.4637 34.2911C85.4583 33.7049 84.4232 33.7532 84.3861 33.5491C84.3639 33.4638 84.6124 33.3154 85.0762 33.2746C85.6916 33.2322 86.3049 33.3826 86.8309 33.7049C87.3542 34.0153 87.7649 34.4845 88.0033 35.0442C88.185 35.4708 88.1442 35.7528 88.0552 35.775Z" fill="#263238"/>
<path d="M87.0345 45.651C87.0641 45.5916 87.7505 45.8588 88.8412 46.3336C89.112 46.4635 89.3865 46.5562 89.5349 46.4078C89.7153 46.1552 89.8149 45.8538 89.8206 45.5434C89.9492 44.7792 90.0864 43.9766 90.2324 43.1357C90.8445 39.7226 91.4492 36.981 91.5865 37.007C91.7237 37.033 91.3416 39.8191 90.7258 43.2322C90.5699 44.0706 90.4216 44.8682 90.2769 45.6325C90.2528 46.039 90.0859 46.4239 89.8057 46.7194C89.7141 46.7868 89.6086 46.8328 89.4969 46.854C89.3852 46.8752 89.2701 46.871 89.1602 46.8419C88.9955 46.7947 88.8373 46.7274 88.689 46.6415C87.6354 46.0851 87.0011 45.7104 87.0345 45.651Z" fill="#263238"/>
<path d="M90.8851 32.2179C90.6291 32.4405 89.6831 31.7393 88.3995 31.2162C87.1159 30.6931 85.9658 30.4743 85.9473 30.1367C85.9473 29.9771 86.2589 29.8102 86.8006 29.7657C87.5068 29.7258 88.2128 29.8478 88.8648 30.1224C89.5167 30.3969 90.0973 30.8167 90.5623 31.3498C90.9036 31.769 91.0038 32.1103 90.8851 32.2179Z" fill="#263238"/>
<path d="M99.4074 37.582C99.0846 37.7044 98.4799 37.0329 97.5895 36.5061C96.6991 35.9793 95.8496 35.7011 95.8125 35.3598C95.8125 35.2003 96.0574 35.037 96.5137 35.0111C97.1179 35.0023 97.7113 35.1713 98.2202 35.4971C98.7376 35.8049 99.1521 36.2594 99.4111 36.8029C99.5891 37.237 99.5558 37.5189 99.4074 37.582Z" fill="#263238"/>
<path d="M86.5892 70.7969L79.763 62.7687C73.0852 62.5313 66.6301 57.6194 65.3947 49.5096L58.5908 46.3711L55.0664 47.2949L55.2185 119.637C55.2185 119.637 74.8066 99.4704 74.8066 99.1254C74.8066 98.7804 86.5892 70.7969 86.5892 70.7969Z" fill="#3B82F6"/>
<path d="M61.9535 97.192L69.4141 102.234L79.7015 82.1262L86.5908 70.8594C86.5908 70.8594 91.6176 75.7119 89.5587 85.0607C87.4997 94.4096 83.3224 104.278 83.3224 104.278L81.0742 110.458C81.0742 110.458 79.4122 116.472 77.4571 118.335C75.502 120.197 68.9874 121.592 65.8229 120.011C62.6584 118.431 55.9102 106.218 55.9102 106.218C60.362 103.566 62.9589 99.7221 61.9535 97.192Z" fill="#3B82F6"/>
<path d="M82.9547 79.8003C82.9226 79.8491 82.8879 79.8962 82.8508 79.9413L82.5206 80.3345L81.263 81.8185L76.7258 87.0902V87.0716L72.6041 95.7861C71.4912 98.0825 70.4561 100.275 69.499 102.275L69.4619 102.156C70.898 102.922 72.2079 103.904 73.3461 105.068C74.2414 105.981 74.9921 107.026 75.572 108.166C75.9476 108.908 76.2471 109.686 76.4661 110.488C76.544 110.767 76.5811 110.989 76.6145 111.134C76.6345 111.207 76.6481 111.281 76.6553 111.356C76.6253 111.287 76.603 111.215 76.5885 111.141C76.544 110.997 76.4958 110.77 76.4104 110.507C76.1695 109.717 75.8566 108.951 75.4755 108.218C74.8895 107.097 74.1392 106.071 73.2496 105.172C72.1082 104.029 70.7998 103.066 69.3691 102.315L69.2949 102.275L69.332 102.197L72.4223 95.7008C73.9434 92.5177 75.3902 89.535 76.5848 87.0048L81.1888 81.7554L82.4835 80.2974L82.8285 79.9264C82.8657 79.8798 82.908 79.8375 82.9547 79.8003Z" fill="#263238"/>
<path d="M61.7522 115.601C61.7056 115.549 61.6645 115.493 61.6297 115.434C61.5444 115.304 61.4331 115.137 61.2959 114.922C60.9991 114.462 60.5836 113.809 60.0642 112.996C59.0143 111.327 57.5452 108.993 55.8312 106.263L55.7793 106.181L55.8646 106.137C57.595 105.26 59.1326 104.047 60.3869 102.568C61.0357 101.785 61.5383 100.891 61.8709 99.93C62.0237 99.4751 62.1184 99.0027 62.1528 98.524C62.1734 98.2945 62.1734 98.0635 62.1528 97.834C62.1382 97.7243 62.1133 97.6163 62.0786 97.5112C62.056 97.4197 62.0085 97.3363 61.9414 97.2701L62.0378 97.118L68.5895 101.507L70.4444 102.779L70.9378 103.124C70.997 103.163 71.0529 103.206 71.1048 103.254C71.0403 103.227 70.9793 103.192 70.923 103.15L70.411 102.831L68.5115 101.599L61.9191 97.2664L62.0156 97.1143C62.1228 97.2004 62.1996 97.3188 62.2345 97.4519C62.2731 97.5727 62.3004 97.6969 62.3161 97.8228C62.3467 98.0689 62.3542 98.3173 62.3383 98.5648C62.3031 99.0595 62.2072 99.5479 62.0527 100.019C61.724 101 61.2214 101.914 60.5687 102.716C59.2983 104.217 57.7373 105.445 55.9796 106.326L56.013 106.2L60.1866 112.967L61.3738 114.922L61.6854 115.445C61.7101 115.496 61.7324 115.548 61.7522 115.601Z" fill="#263238"/>
<path d="M60.2082 95.5781L59.815 95.7933L55.9085 98.9244C55.9085 98.9244 55.1442 101.521 55.1665 101.688C55.1888 101.855 56.9584 105.498 56.9584 105.498C62.3228 102.341 62.1522 98.2492 62.1522 98.2492C62.1522 98.2492 60.4085 95.8527 60.2082 95.5781Z" fill="#FFC4C3"/>
<path d="M54.9327 39.4297C54.9327 39.4297 59.4773 41.0064 59.9299 42.2084C60.1809 42.9915 60.1129 43.842 59.7407 44.5753C59.7407 44.5753 60.3269 45.8552 60.0895 46.9088C59.852 47.9624 59.4773 48.0217 59.4773 48.0217C59.7772 48.2025 60.0069 48.4796 60.1288 48.8077C60.2508 49.1359 60.2578 49.4957 60.1488 49.8284C60.0173 50.511 59.6463 51.1241 59.1026 51.5572C59.1026 51.5572 59.6294 53.0968 58.9542 54.2617C58.2791 55.4266 58.127 56.8178 56.847 56.9662C55.5671 57.1146 49.6721 55.2374 49.2195 53.9612C48.7669 52.685 50.6849 52.0061 50.6849 52.0061C50.6849 52.0061 46.8526 50.9154 46.9268 49.6021C47.001 48.2888 48.4108 47.8362 48.4108 47.8362C48.4108 47.8362 47.2459 47.2723 48.1845 46.1445C49.1231 45.0167 50.9298 45.6919 51.72 45.7736C51.72 45.7736 51.5679 44.119 53.2225 44.2303L54.9513 44.1932L54.9327 39.4297Z" fill="#FFC4C3"/>
<path d="M59.5441 44.8758C59.513 44.9961 59.4669 45.112 59.4068 45.2209C59.3067 45.436 59.1546 45.7477 58.9505 46.1261C58.8504 46.3116 58.7354 46.5193 58.5796 46.7308C58.5104 46.8555 58.4171 46.9653 58.305 47.0535C58.1663 47.1095 58.02 47.1445 57.871 47.1574C57.2546 47.2193 56.6355 47.249 56.016 47.2464C55.3631 47.2464 54.7435 47.2464 54.1611 47.1982C53.6547 47.1124 53.1733 46.916 52.7513 46.6232C52.4617 46.4464 52.1841 46.2506 51.9203 46.037C51.7348 45.8849 51.6421 45.7885 51.6532 45.781C51.7642 45.8346 51.8688 45.9005 51.9649 45.9777C52.1652 46.1075 52.4508 46.2967 52.8181 46.5082C53.232 46.7658 53.6918 46.9409 54.1722 47.0239C54.7324 47.0535 55.352 47.0572 56.0012 47.0535C56.6504 47.0498 57.27 47.035 57.8227 46.9793C57.9492 46.9719 58.0741 46.947 58.1937 46.9051C58.2855 46.8328 58.3624 46.7434 58.42 46.6417C58.561 46.4377 58.6797 46.2411 58.791 46.0556C59.2659 45.3247 59.5181 44.861 59.5441 44.8758Z" fill="#FFA8A7"/>
<path d="M57.5414 42.3196C57.0632 42.6165 56.6391 42.9929 56.2875 43.4325C56.1756 43.5861 56.0787 43.7501 55.9981 43.9222L55.9721 43.9779H55.9091C55.5448 43.9755 55.1846 44.0554 54.8555 44.2116C54.8555 44.2116 54.9223 44.1003 55.1003 43.9964C55.3493 43.8537 55.6335 43.7842 55.9202 43.7961L55.8312 43.8518C55.9106 43.6651 56.0114 43.4883 56.1317 43.325C56.374 42.9837 56.6897 42.701 57.0554 42.4977C57.3374 42.3381 57.534 42.2973 57.5414 42.3196Z" fill="#FFA8A7"/>
<path d="M56.2792 40.739C56.2792 40.765 56.1383 40.8503 55.9083 41.0247C55.635 41.2512 55.4146 41.5349 55.2627 41.8557C55.1163 42.1782 55.0428 42.5291 55.0476 42.8833C55.0596 43.0352 55.0596 43.1878 55.0476 43.3396C55.0253 43.3396 54.94 43.1838 54.8992 42.8945C54.854 42.5118 54.9156 42.1241 55.0774 41.7744C55.2391 41.4247 55.4946 41.1267 55.8155 40.9134C56.0826 40.7576 56.2792 40.7168 56.2792 40.739Z" fill="#FFA8A7"/>
<path d="M59.5256 48.0884C59.4584 48.2403 59.3751 48.3846 59.2771 48.5188C59.0335 48.9024 58.7486 49.2582 58.4275 49.5798C57.9452 50.0791 57.2949 50.3818 56.6023 50.4293C55.8121 50.459 55.0144 50.1622 54.1834 49.9285C52.5177 49.4277 51.0301 48.9009 49.9579 48.5113C49.4237 48.3184 48.9896 48.1403 48.6928 48.0402C48.5361 47.9874 48.3847 47.9203 48.2402 47.8398C48.4038 47.8645 48.5643 47.9068 48.7188 47.966L50.0024 48.3852C51.0857 48.7562 52.5771 49.2422 54.2391 49.743C55.0738 49.9804 55.864 50.2735 56.5948 50.2513C57.2488 50.2117 57.8665 49.9377 58.3348 49.4796C58.6585 49.1726 58.9529 48.836 59.214 48.4742C59.3067 48.337 59.411 48.2079 59.5256 48.0884Z" fill="#FFA8A7"/>
<path d="M59.2999 51.6613C59.2474 51.7694 59.1813 51.8704 59.1033 51.9618C58.9079 52.2268 58.6907 52.475 58.454 52.7038C58.1048 53.0479 57.6914 53.3202 57.2372 53.5051C56.6707 53.7133 56.0612 53.7771 55.4639 53.6906C54.8747 53.6078 54.2986 53.4495 53.7499 53.2195C53.2454 53.0191 52.8002 52.8188 52.4255 52.6593C51.6835 52.3328 51.1938 52.1992 51.2013 52.1696C51.3276 52.1694 51.4531 52.1907 51.5722 52.2326C51.8853 52.3161 52.1937 52.4165 52.496 52.5331C53.2639 52.804 54.2841 53.3345 55.5047 53.4977C56.0719 53.5834 56.6516 53.5287 57.1927 53.3382C57.6314 53.1652 58.0349 52.9138 58.3836 52.5962C58.966 52.0471 59.2702 51.6354 59.2999 51.6613Z" fill="#FFA8A7"/>
<path d="M45.0534 86.7825C45.0534 86.7825 44.1556 85.4247 45.9215 84.7346C47.6874 84.0446 51.145 82.9168 52.2283 82.8166C53.3115 82.7165 58.9876 84.1225 58.9876 84.1225C58.9876 84.1225 60.9835 84.7087 60.9576 86.1444L60.5866 87.4985C61.0511 88.0309 61.3068 88.7136 61.3063 89.4202C61.2474 90.0743 61.017 90.7013 60.6385 91.238L60.4085 95.8531C60.4085 95.8531 60.2045 99.192 58.9246 100.539C57.6447 101.885 55.5449 101.537 55.5449 101.537L55.1739 101.674C55.1739 101.674 52.7142 99.793 53.382 97.415L50.5996 95.5229C50.5996 95.5229 44.6861 94.703 44.3782 93.1152L44.4821 92.2953C44.4821 92.2953 42.2821 91.9652 42.2821 90.4404V89.6725C42.0782 89.474 41.9414 89.2168 41.8909 88.9367C41.8403 88.6567 41.8785 88.3679 42.0002 88.1106C42.4342 87.2128 42.8683 86.9309 43.8551 86.9086C44.2586 86.9272 44.6626 86.8847 45.0534 86.7825Z" fill="#FFC4C3"/>
<path d="M55.3111 93.3968C54.7753 93.4147 54.2395 93.3573 53.7196 93.2262C53.2299 93.1409 52.6549 93.0221 52.0131 92.896C51.694 92.8329 51.3564 92.7662 51.0114 92.7179C50.6664 92.6697 50.2954 92.6697 49.9207 92.64C48.4145 92.5473 47.053 92.4471 46.0661 92.3692L44.9013 92.2653C44.7568 92.2609 44.6135 92.2384 44.4746 92.1986C44.6176 92.1819 44.762 92.1819 44.905 92.1986L46.0773 92.2431C47.0641 92.2876 48.4256 92.3655 49.9281 92.4583C50.2991 92.4879 50.6701 92.4991 51.0411 92.5436C51.4121 92.5881 51.7311 92.666 52.0539 92.7328L53.7493 93.1038C54.2316 93.2114 54.6211 93.2855 54.8919 93.3338C55.0331 93.3438 55.1733 93.3649 55.3111 93.3968Z" fill="#FFA8A7"/>
<path d="M56.0706 90.1772C55.8905 90.2081 55.707 90.2143 55.5253 90.1958C55.1765 90.1958 54.672 90.1513 54.0413 90.0993C53.4106 90.0474 52.6761 89.9806 51.8562 89.899L50.5652 89.7692C50.1237 89.7284 49.6563 89.7246 49.1814 89.7098C47.2782 89.6838 45.5531 89.7098 44.3029 89.7098H42.819C42.638 89.7144 42.457 89.7057 42.2773 89.6838C42.4554 89.6467 42.6371 89.6293 42.819 89.6319C43.1677 89.6319 43.6722 89.5948 44.3029 89.5762C45.5531 89.5391 47.2708 89.4983 49.1888 89.5243C49.6674 89.5243 50.1311 89.5429 50.5874 89.5874L51.8785 89.7283L54.0562 89.9732L55.5401 90.1253C55.7178 90.1328 55.8949 90.1501 56.0706 90.1772Z" fill="#FFA8A7"/>
<path d="M57.1674 86.6643C57.0169 86.7258 56.8551 86.7548 56.6925 86.7496C56.2553 86.7615 55.8178 86.7442 55.383 86.6977C54.8339 86.6494 54.181 86.5641 53.4613 86.4825C52.684 86.3805 51.9005 86.3334 51.1166 86.3415C50.7113 86.3614 50.3075 86.4047 49.9072 86.4714C49.5102 86.527 49.1318 86.5641 48.7683 86.5975C48.0263 86.6606 47.3845 86.7014 46.8354 86.7348C46.2864 86.7682 45.8412 86.783 45.5333 86.7904C45.3742 86.808 45.2137 86.808 45.0547 86.7904C45.2098 86.7496 45.3692 86.7272 45.5296 86.7236L46.828 86.6049L48.7497 86.4269C49.1207 86.3898 49.4917 86.3489 49.8627 86.2933C50.2675 86.2217 50.6764 86.1759 51.0869 86.156C51.8824 86.1483 52.6773 86.2004 53.4649 86.3118L55.3793 86.5678C55.9246 86.6346 56.3661 86.6754 56.674 86.6828C56.9819 86.6903 57.16 86.6494 57.1674 86.6643Z" fill="#FFA8A7"/>
</svg>
