<svg width="128" height="128" viewBox="0 0 128 128" fill="none" xmlns="http://www.w3.org/2000/svg">
<mask id="mask0_4643_75377" style="mask-type:alpha" maskUnits="userSpaceOnUse" x="0" y="0" width="128" height="128">
<path d="M128 0H0V64C0 72.4046 1.65556 80.7269 4.87153 88.4918C8.08819 96.2566 12.8021 103.312 18.7451 109.255C24.6882 115.198 31.7438 119.912 39.5083 123.128C47.2729 126.345 55.5951 128 64 128C72.4049 128 80.7271 126.345 88.4917 123.128C96.2563 119.912 103.312 115.198 109.255 109.255C115.198 103.312 119.912 96.2566 123.128 88.4918C126.344 80.7269 128 72.4046 128 64V0Z" fill="#D9D9D9"/>
</mask>
<g mask="url(#mask0_4643_75377)">
<circle cx="64" cy="64" r="64" fill="#DBEAFE"/>
<path d="M35.3874 62.2781C35.3874 62.2781 26.228 64.8961 24.5412 71.9723C22.9293 78.7044 19.623 93.5075 19.623 93.5075C19.623 93.5075 32.4739 92.8418 37.5267 91.1214L35.3874 62.2781Z" fill="#3B82F6"/>
<path d="M75.26 60.2769C74.7737 59.9628 68.2661 58.6089 68.2661 58.6089L52.5803 59.0166L46.9702 60.0525C46.9702 60.0525 45.9305 77.4849 46.0838 77.7991C46.2371 78.1133 53.4966 84.0936 53.8033 84.4078C54.11 84.7219 69.0964 79.6878 69.0964 79.6878L78.9813 61.9562L75.26 60.2769Z" fill="#FFC4C3"/>
<path d="M112.725 107.989C113.512 106.697 113.95 105.222 113.997 103.71C114.043 102.198 113.697 100.699 112.991 99.3608C110.597 94.6221 88.8 66.5754 88.8 66.5754C88.8 66.5754 80.5121 73.3562 80.9684 81.2252L84.4616 89.9508L98.6139 103.609L112.725 107.989Z" fill="#FFC4C3"/>
<path d="M73.4228 59.5816C74.2119 59.5816 84.7177 61.9079 88.2783 64.9298C92.052 68.1351 103.287 82.0929 103.287 82.0929L86.7523 93.8292L85.0057 91.4917L82.2156 109.033C82.2156 109.033 89.419 128.458 90.3652 135.856L27.7979 135.722C27.7979 135.722 33.2209 119.516 35.465 114.265C35.9063 113.236 31.2088 97.1579 31.2312 92.9204C31.2649 86.1098 33.2097 72.6156 33.2097 72.6156L35.3939 62.2781L50.4252 59.417C50.4252 59.417 52.4186 67.9069 60.7552 67.9069C70.5504 67.9069 73.4228 59.5816 73.4228 59.5816Z" fill="#3B82F6"/>
<g opacity="0.3">
<path d="M89.7786 132.213C89.7076 131.312 89.6402 130.414 89.5692 129.516L78.9325 125.028H70.6221C70.6572 125.384 70.7811 125.724 70.9824 126.019C71.1837 126.314 71.4559 126.553 71.774 126.715C72.414 127.028 73.1015 127.233 73.8086 127.321C74.516 127.405 75.2027 127.615 75.8357 127.942C75.2912 128.19 74.7929 128.529 74.3621 128.944C75.4841 129.92 77.1859 129.602 78.6333 129.935C80.9671 130.474 82.5379 132.707 84.7595 133.604C86.0462 134.12 87.4749 134.158 88.7875 133.713C88.979 133.668 89.1595 133.584 89.3182 133.468C89.477 133.352 89.6106 133.205 89.7113 133.036C89.8038 132.772 89.827 132.488 89.7786 132.213Z" fill="black"/>
</g>
<path d="M83.7541 76.5876C83.7894 76.6654 83.8158 76.747 83.8326 76.8307L84.0196 77.5414C84.1019 77.8518 84.1917 78.2295 84.2777 78.6634C84.3637 79.0972 84.4796 79.6134 84.5619 80.1781C84.6105 80.4623 84.6554 80.7578 84.704 81.0645C84.7527 81.3712 84.7863 81.6966 84.8275 82.0294C84.9172 82.6952 84.9696 83.4095 85.0332 84.1613C85.1304 85.6573 85.1716 87.3291 85.1267 89.0719C85.0226 92.0455 84.7051 95.0078 84.1767 97.9359C83.9747 99.0579 83.8027 99.963 83.6456 100.584C83.5746 100.879 83.5185 101.119 83.4773 101.298C83.4605 101.382 83.4367 101.465 83.4062 101.545C83.4073 101.459 83.4186 101.374 83.4399 101.291C83.4736 101.107 83.5147 100.868 83.5708 100.569C83.6942 99.9443 83.8588 99.0354 84.0421 97.9134C84.5293 94.9861 84.8266 92.0302 84.9322 89.0645C84.9771 87.3291 84.9322 85.676 84.8536 84.1725C84.7938 83.4245 84.7527 82.7101 84.6666 82.0481C84.6292 81.7153 84.5993 81.3936 84.5582 81.0832C84.5171 80.7728 84.4684 80.481 84.4273 80.2005C84.3562 79.6358 84.2515 79.1309 84.173 78.6858C84.0944 78.2407 84.0159 77.8593 83.9448 77.5638C83.8738 77.2683 83.8326 77.029 83.7952 76.8457C83.7744 76.761 83.7606 76.6747 83.7541 76.5876Z" fill="#263238"/>
<path d="M33.896 77.8816C33.9201 77.9632 33.9352 78.0473 33.9409 78.1322C33.9633 78.3154 33.9932 78.5585 34.0269 78.8577C34.1017 79.4861 34.1877 80.3986 34.285 81.5244C34.4757 83.7684 34.6365 86.9101 34.7413 90.3621C34.846 93.8142 34.9806 96.9559 35.1377 99.1999C35.22 100.322 35.2873 101.216 35.3322 101.87C35.3546 102.17 35.3733 102.413 35.3845 102.6C35.3928 102.684 35.3928 102.769 35.3845 102.854C35.3608 102.772 35.347 102.688 35.3434 102.603C35.321 102.416 35.291 102.177 35.2536 101.878C35.1788 101.249 35.0928 100.337 34.9956 99.2074C34.8048 96.9633 34.6478 93.8254 34.543 90.3696C34.4383 86.9138 34.2999 83.7984 34.1466 81.5394L33.9484 78.8652C33.9484 78.566 33.911 78.3267 33.8997 78.1397C33.8917 78.0539 33.8904 77.9676 33.896 77.8816Z" fill="#263238"/>
<path d="M76.6781 11.4733C79.3971 9.41256 84.9062 10.8226 85.9161 12.7038C86.9922 12.4177 88.1373 12.5578 89.1127 13.0949C90.0881 13.6321 90.8187 14.5249 91.1521 15.5874L96.837 17.9885C97.8057 18.3999 98.8192 18.8412 99.455 19.6678C100.091 20.4943 100.229 21.837 99.455 22.5289C101.445 23.4602 101.699 26.7215 99.8552 27.937C100.012 28.206 100.111 28.5041 100.148 28.813C100.185 29.1219 100.159 29.4351 100.071 29.7335C99.9826 30.0318 99.8344 30.309 99.6352 30.548C99.4361 30.787 99.1902 30.9829 98.9128 31.1236C100.185 33.3962 101.062 35.8687 101.505 38.4354C101.688 39.5088 101.778 40.6794 101.217 41.6144C100.656 42.5494 99.2119 42.9945 98.4602 42.2053C98.6748 42.6713 98.7507 43.1892 98.6791 43.6971C98.6075 44.2051 98.3913 44.6818 98.0563 45.0702C99.0549 45.2797 99.0661 46.8842 98.2395 47.4863C97.413 48.0885 96.2797 47.9538 95.2811 47.7444C94.2826 47.5349 93.2092 47.2806 92.2891 47.6995C92.2754 47.8236 92.2869 47.9491 92.3229 48.0687C92.3589 48.1882 92.4186 48.2992 92.4985 48.3951C93.9572 50.1156 93.9946 52.6214 92.3714 54.1847L91.9413 54.5849C91.1933 55.2993 89.6262 55.7892 88.6463 56.0809C86.1592 56.829 84.8501 56.3652 82.2508 56.2605C82.6248 58.0183 77.8525 60.872 73.8095 56.44C63.9507 57.2142 57.0054 56.9112 47.2813 55.1235C45.8937 54.8692 44.2631 54.3755 43.8779 53.0141C42.6997 53.1039 41.5815 52.3521 40.8858 51.3834C40.1902 50.4148 39.8835 49.2479 39.573 48.1072C38.4396 47.5368 37.5107 46.6293 36.914 45.5096C36.3173 44.3898 36.0821 43.1127 36.2407 41.8538C35.5481 41.0604 35.0279 40.1317 34.7131 39.1267C34.3983 38.1217 34.2957 37.0623 34.4118 36.0156C32.2089 34.8674 31.4871 31.5986 33.0018 29.6313C34.0406 26.8576 35.5305 24.2747 37.4113 21.9866C35.8854 21.3471 35.6871 19.0918 36.6184 17.723C37.5497 16.3541 39.1729 15.6659 40.71 15.0488C39.4608 15.1423 38.7016 13.4556 39.214 12.3111C39.7264 11.1666 40.9494 10.5421 42.1238 10.1082C43.8427 9.46521 45.6337 9.03442 47.4571 8.82537C48.4145 6.8394 51.5337 4.95442 53.6656 4.39341C62.2677 2.12693 67.9825 2.20921 76.6819 11.4658" fill="#263238"/>
<path d="M51.8587 22.4353C53.5044 17.1132 58.6843 11.3423 63.9354 13.2085L79.7296 21.5152C80.4994 21.7891 81.1386 22.3418 81.5208 23.064C81.903 23.7862 82.0005 24.6255 81.7941 25.4161L72.5375 61.3206C71.9526 63.5903 70.6017 65.5883 68.7132 66.9765C66.8247 68.3648 64.5146 69.0581 62.1738 68.9391C60.7182 68.8649 59.2956 68.4788 58.0023 67.8068C56.709 67.1348 55.5753 66.1926 54.6779 65.0441C53.7806 63.8957 53.1406 62.5677 52.8013 61.1503C52.462 59.7329 52.4314 58.2591 52.7115 56.8288C53.2014 54.3342 53.5605 52.4567 53.5567 52.4679C53.553 52.4791 46.9256 49.6591 47.6661 40.3015C48.0364 35.6489 50.0523 28.352 51.8587 22.4353Z" fill="#FFC4C3"/>
<path d="M53.8407 31.2208C53.7649 31.5216 53.8097 31.8402 53.9655 32.1085C54.1214 32.3769 54.3759 32.5737 54.6747 32.657C54.8185 32.7066 54.9708 32.7264 55.1225 32.7154C55.2741 32.7043 55.422 32.6625 55.557 32.5926C55.692 32.5226 55.8114 32.4259 55.9079 32.3084C56.0044 32.1909 56.076 32.055 56.1184 31.9089C56.1932 31.6091 56.1484 31.2919 55.9934 31.0245C55.8385 30.7571 55.5855 30.5606 55.2881 30.4765C55.1444 30.4262 54.9919 30.4057 54.84 30.4163C54.6881 30.4268 54.54 30.4681 54.4046 30.5378C54.2692 30.6074 54.1493 30.7039 54.0524 30.8213C53.9555 30.9387 53.8834 31.0746 53.8407 31.2208Z" fill="#263238"/>
<path d="M52.5328 26.6429C52.6376 26.8299 53.6549 26.3923 54.9153 26.6953C56.1757 26.9982 56.9199 27.8397 57.092 27.72C57.1742 27.6677 57.092 27.346 56.7666 26.972C56.3176 26.4699 55.7246 26.1186 55.0686 25.9659C54.4226 25.8065 53.7425 25.8576 53.1275 26.1118C52.6712 26.3175 52.4767 26.5606 52.5328 26.6429Z" fill="#263238"/>
<path d="M65.2657 34.0892C65.1898 34.3891 65.2342 34.7067 65.3894 34.9744C65.5445 35.242 65.798 35.4384 66.096 35.5216C66.2397 35.5712 66.392 35.5911 66.5437 35.5801C66.6954 35.569 66.8432 35.5272 66.9782 35.4572C67.1132 35.3873 67.2326 35.2906 67.3291 35.1731C67.4256 35.0556 67.4973 34.9197 67.5396 34.7736C67.6145 34.4738 67.5696 34.1566 67.4147 33.8892C67.2597 33.6218 67.0067 33.4253 66.7093 33.3412C66.5656 33.2916 66.4133 33.2717 66.2616 33.2828C66.1099 33.2938 65.9621 33.3356 65.8271 33.4056C65.692 33.4755 65.5727 33.5722 65.4762 33.6897C65.3796 33.8072 65.308 33.9431 65.2657 34.0892Z" fill="#263238"/>
<path d="M64.7027 29.822C64.8074 30.009 65.8434 29.5714 67.0851 29.8744C68.3268 30.1773 69.0897 31.0188 69.2618 30.8992C69.3441 30.8468 69.2618 30.5252 68.9327 30.1511C68.4896 29.6538 67.9049 29.304 67.2571 29.1488C66.6111 28.9894 65.931 29.0405 65.316 29.2947C64.8448 29.4966 64.6391 29.7397 64.7027 29.822Z" fill="#263238"/>
<path d="M57.9621 37.9602C57.9883 37.8892 57.244 37.5862 56.0322 37.1075C55.7218 36.999 55.4376 36.8606 55.4338 36.6325C55.4878 36.2981 55.6416 35.9878 55.8752 35.7424L57.3974 33.5507C59.5292 30.4203 61.1561 27.8172 61.0289 27.7349C60.9018 27.6526 59.0692 30.1136 56.9373 33.244L55.4413 35.4619C55.1487 35.7956 54.9843 36.2224 54.9775 36.6662C54.9971 36.7893 55.0443 36.9064 55.1155 37.0088C55.1868 37.1111 55.2802 37.196 55.3889 37.2571C55.553 37.3471 55.7276 37.4162 55.9088 37.4628C57.158 37.8331 57.9434 38.0275 57.9621 37.9602Z" fill="#263238"/>
<path d="M53.5569 52.4681C57.7853 53.557 62.2331 53.4495 66.404 52.1577C66.404 52.1577 61.9833 57.6444 53.168 54.6262L53.5569 52.4681Z" fill="#FFA8A7"/>
<path d="M65.3857 24.5708C65.4269 24.9448 66.706 25.0757 68.1235 25.6031C69.5409 26.1304 70.6256 26.8149 70.8911 26.5568C71.0145 26.4334 70.8911 26.0669 70.4872 25.6218C69.9523 25.0676 69.2934 24.6484 68.5648 24.3988C67.8399 24.1259 67.0598 24.0322 66.2908 24.1258C65.7037 24.1968 65.3857 24.3988 65.3857 24.5708Z" fill="#263238"/>
<path d="M54.0022 22.4688C54.1518 22.8054 55.0793 22.7194 56.1116 22.9513C57.1438 23.1832 57.9816 23.6021 58.2434 23.3552C58.3668 23.2318 58.2958 22.9139 57.9779 22.5548C57.5434 22.111 56.9867 21.8065 56.3787 21.6799C55.7706 21.5534 55.1386 21.6106 54.5632 21.8442C54.1293 22.0462 53.9386 22.308 54.0022 22.4688Z" fill="#263238"/>
<path d="M46.9225 26.0108C47.2388 24.5782 48.0409 23.2991 49.1927 22.3904C49.8397 21.9229 50.5989 21.6199 51.1936 21.0888C52.4802 19.9444 52.6896 18.0482 53.4376 16.4998C53.9329 15.5039 54.6584 14.6403 55.554 13.9808C56.4497 13.3213 57.4896 12.8847 58.5877 12.7074C60.4128 12.4306 62.3277 12.8869 64.0968 12.3334C65.4021 11.9332 66.5129 11.0206 67.8368 10.699C70.4212 10.0781 72.9345 11.821 74.9168 13.5975C75.0177 15.4675 73.5891 16.784 72.2164 18.0557C71.5244 18.6871 70.7034 19.1606 69.8103 19.4435C68.9172 19.7263 67.9733 19.8117 67.0439 19.6938C65.6078 19.5031 64.0108 18.8598 62.8139 19.6938C61.5573 20.5578 61.6022 22.5138 60.4989 23.5685C58.9243 25.0645 56.2464 23.8677 54.1894 24.5895C52.6036 25.1431 51.6723 26.7326 50.6663 28.0827C49.6602 29.4329 48.1155 30.7419 46.4811 30.3268C46.462 28.8759 46.6101 27.4277 46.9225 26.0108Z" fill="#263238"/>
<path d="M70.7574 16.1709C74.9327 16.9194 78.9234 18.4703 82.5086 20.7375C83.5745 21.4107 84.6554 22.2148 85.1267 23.3892C85.5268 24.4252 85.3735 25.5809 85.1491 26.6655C84.446 30.0652 82.2655 33.9661 80.3543 36.8646L75.6045 38.585C72.4815 37.1713 75.0846 31.8081 75.7915 29.0068C74.7533 28.2642 73.9442 27.2453 73.4563 26.0658C72.9683 24.8863 72.8211 23.5935 73.0313 22.3345C72.2118 21.5453 71.5816 20.5808 71.1877 19.5134C70.7939 18.446 70.6468 17.3033 70.7574 16.1709Z" fill="#263238"/>
<path d="M75.8847 37.3657C76.3896 35.4434 78.858 35.5294 80.3353 36.8571C81.1469 37.5864 81.6294 38.8131 81.1058 40.8552C79.7182 46.312 74.5308 43.7912 74.5607 43.6341C74.5906 43.477 75.29 39.6173 75.8847 37.3657Z" fill="#FFC4C3"/>
<path d="M76.7514 41.9771C76.7776 41.9771 76.8299 42.0668 76.9721 42.179C77.1729 42.3346 77.4265 42.4057 77.6789 42.3773C78.3072 42.31 79.0253 41.5208 79.3021 40.5446C79.4347 40.0803 79.4616 39.5921 79.3807 39.1159C79.3685 38.9378 79.3139 38.765 79.2216 38.6122C79.1292 38.4593 79.0016 38.3307 78.8496 38.237C78.7473 38.1806 78.6285 38.1618 78.5138 38.1836C78.3991 38.2055 78.2956 38.2667 78.2212 38.3567C78.109 38.4914 78.1165 38.6073 78.0866 38.611C78.0567 38.6148 77.9931 38.4876 78.0866 38.2744C78.152 38.1469 78.2588 38.0453 78.3895 37.9864C78.5684 37.9147 78.768 37.9147 78.9468 37.9864C79.16 38.0865 79.3436 38.24 79.48 38.432C79.6163 38.624 79.7006 38.848 79.7247 39.0823C79.838 39.6136 79.8187 40.1646 79.6686 40.6868C79.3545 41.7789 78.5279 42.6615 77.6827 42.6914C77.5251 42.6954 77.3686 42.6638 77.2249 42.599C77.0812 42.5343 76.9539 42.4381 76.8524 42.3174C76.7252 42.123 76.729 41.9958 76.7514 41.9771Z" fill="#FFA8A7"/>
<path d="M78.7865 45.9753C79.08 46.0428 79.3793 46.0816 79.6803 46.0913C80.0253 46.1104 80.3711 46.0751 80.7051 45.9866L80.6453 45.9417C80.6304 46.4237 80.7405 46.9013 80.965 47.3281C81.1894 47.7549 81.5205 48.1163 81.926 48.3772C82.3315 48.6382 82.7976 48.7897 83.2791 48.8171C83.7605 48.8445 84.2408 48.7468 84.6733 48.5335L84.5835 48.4961C84.7008 48.7788 84.9254 49.0034 85.2081 49.1207C85.4952 49.2408 85.811 49.2746 86.117 49.218C86.435 49.1671 86.7271 49.0118 86.9473 48.7766C87.1703 48.5359 87.3286 48.2425 87.4073 47.9239C87.5569 47.2623 87.4709 46.5692 87.1642 45.9641C86.8405 45.3523 86.4436 44.7821 85.9823 44.2661L85.9487 44.3933C86.203 44.2938 86.434 44.1428 86.6271 43.9497C86.8202 43.7566 86.9712 43.5256 87.0707 43.2713C87.2867 42.747 87.3426 42.1705 87.2315 41.6144C87.1016 41.053 86.8641 40.5221 86.5321 40.0511C86.1991 39.5743 85.8356 39.1195 85.4438 38.6897L85.4251 38.8169C85.6649 38.6417 85.8652 38.4179 86.0128 38.1602C86.1604 37.9024 86.2519 37.6164 86.2815 37.3209C86.3595 36.7166 86.254 36.1028 85.9786 35.5593C85.4438 34.5195 84.5125 33.8164 83.6523 33.1582L83.6785 33.2629C83.931 32.7157 84.0476 32.1156 84.0184 31.5137C83.9891 30.9118 83.8148 30.3258 83.5103 29.8058C83.2059 29.2857 82.7802 28.8469 82.2697 28.5267C81.7591 28.2066 81.1787 28.0145 80.5779 27.967L80.6453 28.0792C80.8276 27.6223 80.9022 27.1296 80.8633 26.6392C80.8244 26.1489 80.673 25.6741 80.4209 25.2517C80.2076 24.8498 79.91 24.4988 79.5485 24.2225C79.187 23.9463 78.7702 23.7513 78.3264 23.651L78.3825 23.737C78.4617 23.2649 78.4321 22.7811 78.296 22.3222C78.1599 21.8633 77.9209 21.4415 77.5971 21.089C77.3266 20.7691 76.9938 20.5076 76.6189 20.3205C76.244 20.1333 75.835 20.0245 75.4167 20.0007L75.469 20.068C75.5344 19.5627 75.4754 19.0492 75.297 18.572C75.1502 18.1478 74.9341 17.751 74.6574 17.3976C74.2274 16.8248 73.6198 16.4106 72.9295 16.2195L72.7238 16.1634L72.5256 16.1409C72.4078 16.1253 72.2892 16.1166 72.1703 16.1147C71.9838 16.1173 71.7976 16.1323 71.613 16.1596L71.2802 16.2307L71.168 16.2606C71.2065 16.2642 71.2453 16.2642 71.2839 16.2606L71.6168 16.2045C71.8003 16.1812 71.9853 16.1712 72.1703 16.1746C72.2868 16.1791 72.4029 16.1903 72.5181 16.2082L72.7126 16.2344L72.9108 16.2905C73.5848 16.4861 74.1743 16.9006 74.5864 17.4686C74.8556 17.815 75.0643 18.2045 75.2035 18.6206C75.3733 19.083 75.4273 19.5799 75.3606 20.068V20.1316H75.4242C75.8262 20.1569 76.2189 20.2639 76.5783 20.4458C76.9377 20.6278 77.2564 20.881 77.5148 21.19C77.8235 21.5283 78.0513 21.9324 78.1809 22.3717C78.3105 22.811 78.3385 23.274 78.2629 23.7258V23.7968H78.3339C78.7698 23.9081 79.1774 24.1098 79.5302 24.389C79.883 24.6681 80.1731 25.0184 80.3815 25.417C80.59 25.8157 80.7123 26.2537 80.7403 26.7027C80.7684 27.1517 80.7016 27.6016 80.5443 28.0231L80.4994 28.1241H80.6116C81.1863 28.1686 81.7417 28.3518 82.2302 28.6579C82.7187 28.964 83.1257 29.3838 83.4165 29.8816C83.7073 30.3793 83.8732 30.9401 83.8999 31.516C83.9266 32.0918 83.8134 32.6655 83.57 33.1881L83.5401 33.2479L83.5962 33.2891C84.4526 33.9473 85.3615 34.6392 85.8701 35.6341C86.129 36.1453 86.2293 36.7223 86.1581 37.2909C86.1319 37.5629 86.0487 37.8263 85.914 38.0641C85.7794 38.3019 85.5962 38.5086 85.3764 38.671L85.2942 38.7234L85.3615 38.7944C86.1095 39.6584 86.8874 40.5635 87.1118 41.6406C87.2186 42.1635 87.1678 42.7062 86.966 43.2002C86.8766 43.4376 86.7386 43.6537 86.5608 43.8347C86.3831 44.0157 86.1695 44.1575 85.9337 44.2512L85.8252 44.2886L85.9 44.3746C86.3524 44.8804 86.7417 45.4393 87.0595 46.0389C87.3604 46.6136 87.4453 47.277 87.2988 47.9089C87.2453 48.2024 87.1052 48.4732 86.8966 48.6864C86.688 48.8997 86.4204 49.0457 86.1282 49.1058C85.8591 49.1707 85.576 49.1434 85.3243 49.0281C85.0727 48.9127 84.8671 48.7162 84.7406 48.4699L84.7144 48.4064L84.6471 48.4363C84.2328 48.6411 83.7726 48.7356 83.311 48.7104C82.8495 48.6853 82.4023 48.5415 82.0126 48.2929C81.623 48.0443 81.3041 47.6993 81.0868 47.2913C80.8695 46.8833 80.7613 46.4262 80.7724 45.9641V45.9005H80.7126C80.3885 45.988 80.0531 46.0258 79.7177 46.0127C79.4208 46.0066 79.1252 45.9715 78.8351 45.908C78.3722 45.827 77.9314 45.6499 77.541 45.3881C77.2938 45.2334 77.1055 45.0004 77.0062 44.7262C76.9538 44.5392 76.9576 44.4307 76.9464 44.4307C76.9351 44.4307 76.9464 44.4569 76.9464 44.5092C76.9439 44.5855 76.9554 44.6615 76.98 44.7336C77.0682 45.0205 77.255 45.2669 77.5074 45.4293" fill="#A855F7"/>
<path d="M99.0738 42.6016C99.1749 42.513 99.2664 42.414 99.3468 42.3062C99.5818 41.9989 99.7534 41.6481 99.8517 41.2739C100.015 40.6718 99.9739 40.0328 99.7358 39.4563C99.5749 39.0728 99.3358 38.727 99.0338 38.4411C98.7318 38.1552 98.3734 37.9354 97.9817 37.7957L98.0154 37.8705C98.3837 36.9685 98.3944 35.9601 98.0453 35.0505C97.8602 34.5419 97.5681 34.0789 97.1888 33.6928C96.7651 33.3164 96.3068 32.9808 95.82 32.6905C95.5806 32.5326 95.3653 32.3412 95.1804 32.122C94.9979 31.8947 94.87 31.6286 94.8064 31.3441C94.6643 30.7681 94.7092 30.1286 94.5109 29.5002C94.2932 28.8553 93.8878 28.29 93.3467 27.8769C92.8057 27.4638 92.1536 27.2216 91.474 27.1814L91.5488 27.2936C91.7765 26.6421 91.8509 25.9469 91.7662 25.262C91.6815 24.577 91.44 23.9209 91.0604 23.3445C90.6809 22.7681 90.1735 22.287 89.5778 21.9386C88.982 21.5902 88.314 21.3839 87.6255 21.3357L87.7003 21.4442C87.9219 20.7238 87.9329 19.9551 87.7321 19.2286C87.5313 18.5022 87.127 17.8483 86.5669 17.344C86.0068 16.8397 85.3142 16.5061 84.5708 16.3823C83.8273 16.2586 83.064 16.35 82.3707 16.6457L82.4568 16.6719C82.0084 16.0389 81.4293 15.5096 80.7588 15.1197C80.1606 14.7663 79.5196 14.491 78.8513 14.3007C77.7803 13.9662 76.6581 13.8256 75.5377 13.8855C74.8201 13.9181 74.112 14.0632 73.4395 14.3156C73.2631 14.3828 73.0918 14.4628 72.9271 14.555L72.7588 14.6485C72.7588 14.6485 72.9944 14.5325 73.4544 14.3568C74.1269 14.1262 74.8307 14.0001 75.5414 13.9828C76.6511 13.938 77.7601 14.0886 78.8177 14.4278C79.4744 14.6257 80.1029 14.9073 80.6877 15.2656C81.3393 15.6472 81.9007 16.1652 82.3333 16.7841L82.367 16.8327L82.4231 16.8102C83.0876 16.5297 83.8183 16.4441 84.5297 16.5634C85.2412 16.6828 85.9039 17.0022 86.4405 17.4842C86.9771 17.9663 87.3654 18.5912 87.56 19.2858C87.7546 19.9804 87.7475 20.7161 87.5395 21.4068L87.5096 21.5115H87.6143C88.2757 21.5606 88.917 21.7609 89.4889 22.0969C90.0607 22.4329 90.5478 22.8956 90.9127 23.4495C91.2776 24.0033 91.5106 24.6335 91.5936 25.2915C91.6766 25.9495 91.6076 26.6178 91.3917 27.245L91.3543 27.3534H91.4665C92.1118 27.3917 92.7311 27.6214 93.2453 28.0131C93.7595 28.4047 94.1455 28.9407 94.3539 29.5526C94.5483 30.1435 94.5072 30.7793 94.6568 31.3852C94.7272 31.6911 94.8652 31.9774 95.0607 32.223C95.2576 32.4504 95.484 32.6504 95.7339 32.8177C96.2159 33.1015 96.6704 33.4296 97.0916 33.7976C97.4595 34.1675 97.7428 34.6128 97.9219 35.1028C98.2649 35.9793 98.2649 36.9529 97.9219 37.8293L97.8994 37.8854H97.9555C98.3342 38.0181 98.6813 38.2278 98.9749 38.5014C99.2684 38.775 99.5021 39.1065 99.661 39.475C99.8995 40.0336 99.9481 40.6551 99.7994 41.244C99.7091 41.6137 99.5492 41.9628 99.3281 42.2725C99.1673 42.5007 99.0663 42.5942 99.0738 42.6016Z" fill="#A855F7"/>
<path d="M46.0239 33.876C46.0739 33.8138 46.1095 33.7413 46.1283 33.6637C46.147 33.5861 46.1484 33.5054 46.1323 33.4272C46.1025 33.2364 46.0225 33.057 45.9005 32.9073C45.7304 32.7074 45.5201 32.5456 45.2834 32.4323C44.9965 32.295 44.7308 32.1174 44.4942 31.905C44.2402 31.6267 44.0828 31.2738 44.0454 30.8989C43.9984 30.4661 44.0339 30.0282 44.1501 29.6086C44.2586 29.1598 44.4231 28.6885 44.5241 28.1724C44.7373 27.1289 44.4979 25.9807 44.4531 24.7764C44.4232 24.1545 44.5173 23.5328 44.7298 22.9476C44.8356 22.6406 45.0068 22.3602 45.2315 22.1258C45.4562 21.8914 45.7291 21.7086 46.0314 21.5899C46.6597 21.3543 47.374 21.3842 48.0921 21.3094C48.4634 21.2811 48.8274 21.1914 49.1693 21.0439C49.5176 20.8727 49.8163 20.6152 50.037 20.2959C50.4404 19.6467 50.7751 18.9573 51.0356 18.2388C51.1819 17.8873 51.3798 17.5596 51.6227 17.2664C51.8691 16.9814 52.2033 16.7867 52.5727 16.7129C53.0966 16.6749 53.6232 16.7038 54.1398 16.7989C54.411 16.8287 54.6852 16.8135 54.9514 16.754C55.2188 16.6863 55.4639 16.5496 55.662 16.3576C56.0033 15.966 56.2889 15.5293 56.511 15.0598C56.7392 14.6234 57.058 14.2409 57.446 13.9378C57.8116 13.6494 58.233 13.44 58.6836 13.3229C59.1343 13.2057 59.6043 13.1833 60.064 13.2571C60.9278 13.4011 61.7061 13.8643 62.2445 14.5549L62.3043 14.6372L62.3604 14.5549C62.8056 13.9384 63.3771 13.424 64.0369 13.0461C64.6967 12.6681 65.4296 12.4353 66.1865 12.3632C66.8168 12.307 67.452 12.3743 68.0565 12.5614C68.573 12.7118 69.0582 12.9538 69.489 13.2758C70.0941 13.7325 70.554 14.3547 70.813 15.0673C70.8846 15.2538 70.9433 15.445 70.9888 15.6395C70.9888 15.6993 71.0149 15.748 71.0261 15.7891C71.0374 15.8302 71.0261 15.8377 71.0261 15.8377C71.0276 15.8203 71.0276 15.8028 71.0261 15.7854C71.0261 15.748 71.0261 15.6956 71 15.6358C70.9648 15.4374 70.9135 15.2423 70.8466 15.0523C70.5979 14.322 70.1401 13.6809 69.5301 13.2085C69.0951 12.8721 68.6019 12.6186 68.0752 12.4605C67.4573 12.2636 66.8067 12.1899 66.1603 12.2435C65.3838 12.3125 64.631 12.5468 63.9524 12.9306C63.2738 13.3144 62.6851 13.8389 62.2258 14.4689H62.3455C61.788 13.7431 60.9773 13.2543 60.0753 13.1C59.5931 13.0221 59.1 13.0447 58.627 13.1664C58.1539 13.288 57.7111 13.5061 57.3263 13.8069C56.9224 14.1208 56.5887 14.5157 56.3464 14.9663C56.133 15.422 55.8559 15.8451 55.5236 16.2229C55.3382 16.3909 55.1165 16.5137 54.8758 16.5819C54.6352 16.65 54.382 16.6615 54.1361 16.6157C53.6044 16.5199 53.0627 16.4922 52.5241 16.5334C52.117 16.6147 51.7486 16.8292 51.4769 17.143C51.221 17.4469 51.0141 17.7889 50.8635 18.1566C50.6083 18.8657 50.2799 19.5463 49.8836 20.1874C49.6788 20.4808 49.4019 20.7165 49.0795 20.8718C48.755 21.0153 48.4085 21.1026 48.0547 21.1299C47.3516 21.2084 46.626 21.1748 45.9566 21.4254C45.625 21.5459 45.3283 21.7463 45.0926 22.0088C44.8719 22.2733 44.702 22.5764 44.5914 22.9027C44.3734 23.5009 44.278 24.1369 44.3109 24.7727C44.3633 25.9994 44.6064 27.1289 44.4044 28.1388C44.3109 28.6399 44.1501 29.1112 44.0304 29.5712C43.914 30.0036 43.881 30.4542 43.9332 30.8989C43.9769 31.2916 44.1476 31.6593 44.4194 31.9461C44.6654 32.1607 44.9413 32.3383 45.2385 32.4735C45.4679 32.582 45.6737 32.7344 45.8444 32.9223C45.9665 33.0627 46.0491 33.2331 46.0837 33.416C46.1183 33.5716 46.0971 33.7344 46.0239 33.876Z" fill="#A855F7"/>
<path d="M36.9609 23.2542C36.9609 23.2542 36.9909 23.2281 37.0395 23.1645C37.0881 23.1009 37.1592 22.9999 37.2489 22.884L38.0493 21.7994C38.4009 21.3281 38.7973 20.7334 39.3433 20.1051C39.9233 19.3633 40.7013 18.8006 41.5874 18.4819C42.0811 18.3286 42.6271 18.2687 43.1919 18.1378C43.4824 18.0748 43.7638 17.9755 44.0296 17.8424C44.3095 17.6985 44.5506 17.4894 44.7328 17.2327C45.1068 16.7091 45.2377 16.0621 45.5631 15.5123C45.7165 15.231 45.9529 15.0038 46.24 14.8616C46.5455 14.7269 46.8719 14.6459 47.2049 14.6222C47.559 14.592 47.9095 14.5294 48.2522 14.4352C48.6129 14.325 48.9296 14.1038 49.1573 13.8031C49.621 13.1972 49.7706 12.4417 50.0436 11.7536C50.1655 11.4041 50.3577 11.0833 50.6084 10.8111C50.8719 10.5523 51.2264 10.4073 51.5958 10.4072C52.3438 10.4072 53.0918 10.7812 53.9109 10.8298C54.331 10.8336 54.7414 10.7025 55.0815 10.4558C55.4033 10.2196 55.6959 9.94586 55.9529 9.64044C56.2015 9.34911 56.4649 9.07073 56.7421 8.80641C57.0073 8.55112 57.3328 8.36713 57.6883 8.27158C58.4027 8.0958 59.117 8.40248 59.7678 8.69047C60.404 9.034 61.107 9.2356 61.8286 9.2814C62.5125 9.24107 63.1838 9.07895 63.8108 8.80267C64.3899 8.54874 64.9924 8.35207 65.6098 8.21548C66.7364 8.06635 67.882 8.251 68.9047 8.74657C69.7517 9.14705 70.4971 9.73393 71.0852 10.4633C71.5216 11.0214 71.8697 11.6433 72.1174 12.3071C72.2686 12.7292 72.3837 13.1633 72.4615 13.6049C72.4877 13.747 72.5101 13.863 72.5251 13.949C72.5317 13.9884 72.5418 14.0272 72.555 14.0649C72.56 14.0252 72.56 13.985 72.555 13.9452C72.555 13.8592 72.5251 13.7433 72.5064 13.5974C72.4431 13.1509 72.3379 12.7114 72.1922 12.2847C71.9507 11.6122 71.6063 10.9814 71.1712 10.4146C70.5809 9.66617 69.8274 9.06239 68.9683 8.64933C67.9259 8.13516 66.755 7.94001 65.6023 8.08832C64.9751 8.223 64.3626 8.41841 63.7734 8.67177C63.1634 8.94111 62.5094 9.09699 61.8435 9.13179C61.1442 9.08889 60.4633 8.89087 59.8501 8.55209C59.5149 8.40093 59.1685 8.27589 58.8141 8.17808C58.4384 8.05826 58.0368 8.04479 57.6539 8.1392C57.2711 8.2336 56.9218 8.43217 56.6448 8.71291C56.3617 8.97987 56.0932 9.26204 55.8407 9.55816C55.5934 9.85314 55.3122 10.118 55.003 10.3473C54.6882 10.5657 54.3126 10.6796 53.9296 10.6727C53.1554 10.6503 52.4335 10.2463 51.607 10.2501C51.1875 10.2485 50.7843 10.4125 50.485 10.7064C50.2177 10.995 50.0138 11.3365 49.8866 11.7087C49.6061 12.4118 49.4527 13.1561 49.0263 13.7171C48.818 13.9918 48.529 14.1945 48.1998 14.2968C47.8673 14.3902 47.5267 14.4515 47.1825 14.4801C46.8324 14.5079 46.4897 14.5951 46.1689 14.7381C45.8536 14.8941 45.5928 15.1418 45.4209 15.4487C45.0843 16.0322 44.9534 16.6755 44.6056 17.1654C44.2475 17.6259 43.7271 17.9322 43.1507 18.0219C42.5972 18.1565 42.0474 18.2201 41.5425 18.3959C40.6441 18.7313 39.8576 19.3118 39.2723 20.0715C38.7375 20.7147 38.341 21.3132 38.0007 21.7881L37.2265 22.9102L37.0283 23.1981C37.0046 23.2153 36.9821 23.2341 36.9609 23.2542Z" fill="#A855F7"/>
<path d="M43.9639 18.6205C43.9333 18.6039 43.9006 18.5913 43.8667 18.5831C43.7659 18.5589 43.6608 18.5589 43.56 18.5831C43.3728 18.6548 43.2064 18.7721 43.0758 18.9242C42.9452 19.0763 42.8546 19.2586 42.812 19.4545C42.7567 19.7339 42.7416 20.0198 42.7671 20.3035C42.8014 20.6316 42.7875 20.963 42.726 21.2871C42.6169 21.6476 42.4143 21.9728 42.1388 22.2296C41.862 22.5213 41.5254 22.7944 41.23 23.1459C41.0617 23.3269 40.9374 23.5441 40.8667 23.7809C40.796 24.0176 40.7808 24.2675 40.8223 24.511C40.9083 25.0122 41.1701 25.4722 41.2449 25.9809C41.298 26.5186 41.1383 27.0557 40.7998 27.4769C40.4894 27.9407 40.0892 28.3708 39.7676 28.8906C39.5983 29.1532 39.4791 29.4449 39.416 29.7509C39.3598 30.0676 39.3712 30.3926 39.4497 30.7046C39.645 31.3181 39.8954 31.9127 40.1977 32.4811C40.5114 33.0516 40.5982 33.7194 40.4408 34.3511C40.2463 34.9757 39.7751 35.4731 39.4123 36.0828C39.2212 36.3814 39.0856 36.7121 39.0121 37.0589C38.9535 37.406 38.9765 37.762 39.0794 38.0987C39.3027 38.7289 39.6003 39.3303 39.9658 39.8901C40.3046 40.4218 40.53 41.0177 40.6278 41.6405C40.6661 42.2548 40.7461 42.8659 40.8672 43.4694C40.9447 43.7662 41.0892 44.0413 41.2898 44.2735C41.4932 44.4887 41.7324 44.6672 41.9967 44.8008C42.2423 44.9287 42.4807 45.0698 42.711 45.2235C42.92 45.3832 43.1062 45.5707 43.2645 45.7807C43.5472 46.2007 43.7735 46.6558 43.9378 47.1346C44.1135 47.5946 44.2706 48.0472 44.4614 48.4586C44.8034 49.2172 45.3821 49.8444 46.1107 50.2463C46.6535 50.5513 47.2584 50.729 47.8798 50.7662C48.2696 50.7937 48.6612 50.7571 49.0392 50.6578C49.1669 50.6235 49.292 50.5797 49.4132 50.5269C48.9143 50.6778 48.3923 50.7373 47.8723 50.7026C47.2638 50.6519 46.6739 50.468 46.1444 50.1641C45.4427 49.7624 44.8882 49.1463 44.5623 48.4062C44.3753 48.0023 44.222 47.5535 44.05 47.0897C43.8861 46.597 43.6558 46.129 43.3655 45.6984C43.2018 45.4735 43.0065 45.2732 42.7858 45.1038C42.5527 44.945 42.3105 44.8001 42.0602 44.6699C41.8121 44.5424 41.5871 44.3743 41.3945 44.1725C41.2161 43.9539 41.0883 43.6984 41.0205 43.4245C40.9054 42.8279 40.8292 42.2245 40.7924 41.618C40.6929 40.9747 40.4625 40.3586 40.1154 39.8079C39.7571 39.2594 39.4646 38.6707 39.244 38.0538C39.1515 37.7408 39.131 37.4109 39.1841 37.0888C39.2524 36.7633 39.3791 36.4528 39.5582 36.1725C39.9097 35.5966 40.3922 35.0767 40.6054 34.4035C40.7059 34.07 40.7252 33.7174 40.6615 33.375C40.596 33.0471 40.4918 32.7282 40.351 32.425C40.052 31.8654 39.8017 31.281 39.603 30.6784C39.5298 30.3885 39.5196 30.0862 39.5731 29.792C39.63 29.5047 39.7404 29.2307 39.8985 28.9841C40.2052 28.4792 40.6016 28.0491 40.9233 27.5741C41.2744 27.1213 41.439 26.5512 41.3833 25.9809C41.2973 25.4348 41.0093 24.9785 40.9495 24.5073C40.9111 24.282 40.9249 24.0509 40.9897 23.8318C41.0545 23.6127 41.1687 23.4113 41.3235 23.2432C41.604 22.8991 41.9368 22.6223 42.2173 22.3231C42.5001 22.0486 42.7074 21.706 42.8195 21.3282C42.8791 20.995 42.8892 20.6547 42.8494 20.3184C42.8195 20.043 42.8283 19.7648 42.8756 19.4919C42.9126 19.3047 42.9941 19.1292 43.1132 18.9801C43.2323 18.831 43.3856 18.7128 43.56 18.6354C43.6907 18.5935 43.8305 18.5883 43.9639 18.6205Z" fill="#A855F7"/>
<path d="M98.9681 42.392C99.1156 42.4237 99.2661 42.4387 99.4169 42.4369C99.8503 42.4342 100.278 42.3412 100.674 42.1638C101.321 41.8881 101.851 41.3928 102.17 40.7651C102.377 40.3481 102.49 39.8905 102.499 39.4249C102.509 38.9594 102.416 38.4974 102.226 38.0722C101.979 37.5941 101.683 37.1429 101.343 36.7258C100.974 36.2861 100.709 35.7681 100.569 35.2111C100.489 34.5997 100.641 33.9806 100.995 33.4757C101.321 32.9259 101.743 32.4135 102.087 31.7964C102.45 31.1197 102.666 30.3747 102.724 29.6092C102.782 28.8438 102.678 28.0748 102.421 27.3515C102.164 26.6282 101.759 25.9666 101.231 25.4092C100.704 24.8517 100.065 24.4107 99.3571 24.1143L99.3833 24.2527C99.7076 23.9411 99.9525 23.5564 100.098 23.1307C100.237 22.7026 100.295 22.2524 100.27 21.803C100.244 21.3462 100.136 20.8977 99.9518 20.479C99.7601 20.0605 99.5081 19.6724 99.2038 19.3271C98.2714 18.355 97.1271 17.6114 95.8602 17.1541C94.6838 16.683 93.4455 16.3844 92.1837 16.2677L92.2547 16.3649C92.3691 15.6463 92.2849 14.9101 92.0114 14.2358C91.7378 13.5615 91.2853 12.9747 90.7026 12.5389C90.1509 12.1384 89.5083 11.8814 88.8326 11.7909C88.1965 11.7416 87.5565 11.7845 86.9326 11.918C86.638 11.9613 86.3394 11.9714 86.0425 11.9479C85.7589 11.9148 85.4838 11.8298 85.2309 11.6974C84.752 11.4189 84.3076 11.085 83.9069 10.7025C83.527 10.344 83.1006 10.0383 82.6391 9.79367C82.0615 9.49695 81.4303 9.31893 80.7828 9.27011C80.1353 9.22129 79.4846 9.30266 78.8691 9.50943C78.293 9.70924 77.76 10.0163 77.2983 10.4145C77.0162 10.6613 76.765 10.9414 76.5503 11.2485C76.4722 11.3541 76.4022 11.4654 76.3408 11.5814C76.3408 11.5814 76.4156 11.4692 76.5727 11.2673C77.1657 10.4856 77.9802 9.90045 78.9102 9.58796C79.6728 9.33262 80.4886 9.27979 81.2777 9.43463C81.7394 9.52144 82.1856 9.67648 82.6017 9.89465C83.0532 10.1396 83.4706 10.4426 83.8434 10.796C84.2473 11.1886 84.6968 11.5313 85.1823 11.817C85.4498 11.9589 85.7416 12.049 86.0425 12.0826C86.3504 12.1113 86.6606 12.1025 86.9663 12.0564C87.5805 11.9252 88.2107 11.8862 88.8363 11.9405C89.4857 12.0296 90.1026 12.279 90.6316 12.666C91.1921 13.0845 91.6276 13.6481 91.8913 14.2961C92.1549 14.944 92.2366 15.6516 92.1276 16.3425V16.4285H92.2173C93.4624 16.5467 94.6841 16.8427 95.8452 17.3074C97.0871 17.7539 98.2086 18.4824 99.1215 19.4355C99.417 19.7712 99.6603 20.1495 99.8433 20.5575C100.016 20.9572 100.118 21.3835 100.146 21.8179C100.171 22.2459 100.115 22.6747 99.9817 23.0821C99.8453 23.4785 99.6157 23.8363 99.3122 24.1256L99.2187 24.2153L99.3384 24.2639C100.026 24.5522 100.646 24.9806 101.158 25.5218C101.671 26.063 102.065 26.7052 102.316 27.4073C102.566 28.1093 102.668 28.8559 102.614 29.5994C102.559 30.3429 102.351 31.067 102.001 31.7253C101.687 32.3238 101.253 32.8474 100.92 33.4009C100.552 33.9348 100.397 34.5873 100.487 35.2298C100.632 35.806 100.909 36.3409 101.294 36.7931C101.631 37.2027 101.925 37.645 102.173 38.1134C102.36 38.5256 102.454 38.974 102.447 39.4266C102.441 39.8791 102.335 40.3247 102.136 40.7314C101.835 41.3426 101.332 41.8304 100.711 42.1115C100.324 42.2939 99.9042 42.3945 99.4768 42.4069C99.1215 42.4107 98.9719 42.3845 98.9681 42.392Z" fill="#263238"/>
<path d="M42.7598 14.4503C42.7758 14.418 42.7883 14.3842 42.7972 14.3493L42.8869 14.0463C42.9655 13.7658 43.0814 13.3731 43.2273 12.8757C43.3731 12.3783 43.5788 11.7537 43.8593 11.058C44.1672 10.2656 44.5677 9.51237 45.0524 8.81401C45.6435 7.97065 46.4087 7.26405 47.2965 6.74202C47.7883 6.45902 48.3225 6.25697 48.8785 6.14361C49.4784 6.05635 50.0828 6.00266 50.6887 5.98279C51.3413 5.9623 51.9838 5.81627 52.5811 5.55268C53.1853 5.24982 53.7494 4.87291 54.2604 4.43066C54.7878 4.00056 55.3002 3.53305 55.8724 3.13286C56.4426 2.71882 57.0841 2.41328 57.7649 2.23151C59.1291 1.92246 60.5424 1.89827 61.9163 2.16045C63.2001 2.37388 64.4664 2.6814 65.705 3.0805C67.8213 3.73151 69.8145 4.73002 71.6031 6.03515C72.8024 6.92257 73.8549 7.99279 74.7223 9.20671C74.8719 9.42364 75.0103 9.61437 75.1187 9.78642L75.3768 10.2315L75.5413 10.5045C75.5585 10.5362 75.5785 10.5663 75.6012 10.5943C75.5892 10.5594 75.5742 10.5256 75.5563 10.4933L75.4067 10.2128L75.1599 9.76024C75.0551 9.58446 74.9205 9.38623 74.7859 9.16931C73.9339 7.93161 72.8868 6.8403 71.6853 5.9379C69.8917 4.61652 67.8892 3.60516 65.7611 2.94586C64.5109 2.54259 63.2319 2.23502 61.935 2.02581C60.5377 1.75814 59.1001 1.78234 57.7125 2.09687C57.0117 2.28422 56.3512 2.5986 55.7639 3.0244C55.1842 3.43207 54.6681 3.90332 54.1445 4.33342C53.6473 4.77597 53.0955 5.15304 52.5026 5.45544C51.9247 5.71316 51.3024 5.85667 50.67 5.87807C50.0587 5.89896 49.4492 5.95641 48.8448 6.05011C48.2726 6.16807 47.7232 6.37772 47.2179 6.67095C46.3264 7.21174 45.5612 7.93742 44.9739 8.79904C44.4919 9.50661 44.0952 10.2686 43.792 11.0693C43.519 11.7724 43.332 12.397 43.1861 12.9056C43.0403 13.4143 42.943 13.8145 42.8757 14.0837C42.842 14.2146 42.8196 14.3156 42.8009 14.3942C42.7857 14.4117 42.772 14.4305 42.7598 14.4503Z" fill="#263238"/>
<path d="M62.8615 41.8237C62.9058 41.4459 62.8463 41.0631 62.6895 40.7165C62.5327 40.37 62.2844 40.0726 61.9714 39.8565C61.6525 39.6501 61.2776 39.5472 60.898 39.5619C60.5185 39.5767 60.1527 39.7083 59.8508 39.9387C59.5744 40.1707 59.3812 40.4863 59.3002 40.8379C59.2192 41.1895 59.2549 41.5579 59.4019 41.8873C59.5352 42.2247 59.7656 42.515 60.0639 42.7213C60.4549 42.9761 60.9139 43.1064 61.3804 43.0954C61.7649 43.1109 62.1416 42.9844 62.4389 42.74C62.684 42.4944 62.8338 42.1696 62.8615 41.8237Z" fill="#FFA8A7"/>
<path d="M62.6372 39.0073C62.4277 38.9774 62.2931 40.3799 61.0028 41.2513C59.7124 42.1228 58.2276 41.846 58.1977 42.0405C58.1715 42.1265 58.5044 42.3434 59.1365 42.4145C59.9584 42.5016 60.7847 42.2963 61.4703 41.8348C62.1274 41.3918 62.5862 40.7104 62.7494 39.9348C62.8578 39.3589 62.7344 39.0073 62.6372 39.0073Z" fill="#263238"/>
<g opacity="0.3">
<path d="M36.4434 112.806C40.1572 113.087 43.6617 110.671 45.7299 107.57C47.7982 104.47 48.722 100.767 49.5747 97.1429C51.1206 90.71 52.6665 84.2758 54.2124 77.8404C54.9342 74.8484 55.8916 71.516 58.5733 69.9863C59.4185 69.5039 60.3984 69.2383 61.1202 68.5875C61.8421 67.9368 62.1749 66.6801 61.4568 66.0294C60.8173 65.4496 59.8112 65.7002 59.0071 66.0069C56.5275 66.9606 54.0927 68.2135 52.3161 70.1883C50.5396 72.163 49.5186 74.9606 50.2068 77.5263" fill="black"/>
</g>
<path d="M40.0142 75.9031C40.0142 75.9031 35.8702 84.1312 32.0516 92.1611L23.7075 93.2831C23.7075 93.2831 23.169 109.717 30.7538 112.567C39.124 115.712 43.4176 105.752 46.088 98.2836C48.1825 92.4678 51.8328 79.9162 52.7266 76.3855L40.0142 75.9031Z" fill="#FFC4C3"/>
<path d="M34.139 88.1555C34.0895 88.3053 34.0243 88.4495 33.9445 88.5856C33.8099 88.8549 33.6042 89.2439 33.3461 89.7076C32.8337 90.6651 32.1081 91.9741 31.3377 93.4477C30.5672 94.9213 29.9202 96.2565 29.4938 97.2513C29.2769 97.745 29.1198 98.1527 29.0001 98.4332C28.9503 98.5829 28.8851 98.727 28.8057 98.8633C28.8276 98.707 28.8677 98.5539 28.9253 98.407C29.0188 98.119 29.1647 97.7039 29.3667 97.199C29.8988 95.8881 30.4993 94.606 31.1656 93.3579C31.9398 91.8956 32.6841 90.594 33.2264 89.659L33.8772 88.537C33.9497 88.4003 34.0375 88.2723 34.139 88.1555Z" fill="#FFA8A7"/>
<path d="M51.6909 80.1517C52.5848 76.6323 54.3763 70.6221 55.4609 69.4701C56.5455 68.3182 63.1991 65.5057 63.906 64.2902C64.1153 63.9916 64.2108 63.6278 64.1751 63.2649C64.1394 62.902 63.975 62.5638 63.7115 62.3117C63.875 61.6994 63.9827 61.0734 64.0331 60.4416C64.2239 58.9082 63.1991 58.4594 63.1991 58.4594L63.5731 57.3075C64.0855 55.1345 62.1032 55.4562 62.294 55.0074C62.4847 54.5585 69.8414 52.4492 70.3501 52.1948C70.5447 52.0908 70.7121 51.9423 70.8387 51.7616C70.9654 51.5808 71.0477 51.3727 71.079 51.1542C71.1103 50.9358 71.0898 50.713 71.019 50.5039C70.9482 50.2948 70.8293 50.1054 70.6717 49.9508C69.7778 48.9933 63.0607 50.9756 60.6297 51.8208C58.1986 52.6661 54.0434 54.8129 53.5984 53.8666C53.1533 52.9204 53.4188 49.0831 53.0972 47.7292C52.7755 46.3753 51.7545 45.6834 50.9878 45.9377C50.2211 46.192 50.7297 48.3688 50.7297 49.517C50.6843 51.7619 50.1387 53.9685 49.1327 55.976C47.7265 58.9194 47.2627 62.7567 47.2627 62.7567L39.835 76.1798" fill="#FFC4C3"/>
<path d="M39.8486 76.1798C39.8486 76.1798 39.886 76.0975 39.9721 75.9404C40.0581 75.7833 40.1815 75.544 40.3461 75.241L41.8084 72.5594L47.2165 62.7231V62.7492C47.3777 61.5427 47.6137 60.3473 47.9234 59.17C48.2559 57.8928 48.7131 56.6514 49.2885 55.4636C49.8628 54.184 50.2676 52.8349 50.4928 51.4505C50.6117 50.7301 50.6631 50.0001 50.6462 49.2701C50.6088 48.5221 50.4779 47.7741 50.4853 47.0074C50.4869 46.8089 50.507 46.6111 50.5452 46.4164C50.5633 46.3087 50.6039 46.206 50.6645 46.1151C50.7251 46.0242 50.8043 45.9472 50.8968 45.8891C51.0936 45.8135 51.3059 45.7872 51.5152 45.8126C51.7245 45.8381 51.9243 45.9144 52.0973 46.0349C52.4304 46.2754 52.7075 46.585 52.9096 46.9427C53.1117 47.3004 53.2339 47.6975 53.2679 48.1069C53.4512 49.7152 53.3502 51.357 53.5223 52.9989C53.5453 53.2015 53.5803 53.4026 53.627 53.6011C53.6506 53.6919 53.6845 53.7797 53.728 53.8629C53.7786 53.9284 53.852 53.9725 53.9337 53.9863C54.3372 54.0233 54.744 53.9735 55.1268 53.8404C55.938 53.5903 56.7357 53.2982 57.5166 52.9653C58.3133 52.6399 59.1062 52.2995 59.9215 51.9854C60.7368 51.6712 61.5783 51.4131 62.4236 51.1513C64.3429 50.5461 66.3009 50.0713 68.2843 49.7301C68.7789 49.6508 69.2793 49.6133 69.7803 49.6179C70.035 49.6139 70.2884 49.6558 70.5283 49.7413C70.6553 49.7941 70.7653 49.8808 70.8462 49.9919C70.9303 50.0893 71.0031 50.196 71.0631 50.3098C71.1823 50.5404 71.2363 50.7992 71.2192 51.0583C71.202 51.3173 71.1145 51.5668 70.9659 51.7797C70.8276 51.9968 70.6357 52.1746 70.4086 52.2958C70.173 52.3968 69.9523 52.4604 69.7242 52.5352C67.914 53.1149 66.1375 53.6572 64.432 54.2294C64.0019 54.3753 63.5793 54.5211 63.1679 54.6819C62.9636 54.7591 62.7638 54.8478 62.5695 54.9475C62.524 54.9684 62.4813 54.9947 62.4423 55.026C62.4161 55.026 62.4199 55.0485 62.4086 55.0522C62.4058 55.0607 62.4058 55.0699 62.4086 55.0784C62.4086 55.0971 62.5134 55.1644 62.6069 55.1981C62.8177 55.2744 63.0196 55.3735 63.209 55.4935C63.406 55.6227 63.5618 55.8058 63.6578 56.0209C63.808 56.4462 63.821 56.9079 63.6952 57.3411L63.3212 58.4931L63.2763 58.3846C63.6157 58.5646 63.8806 58.8587 64.0243 59.2149C64.1598 59.5555 64.2124 59.9234 64.1777 60.2883C64.1478 60.6436 64.0917 60.9802 64.043 61.3205C63.9959 61.6627 63.9259 62.0013 63.8336 62.3341L63.8112 62.2406C63.9805 62.3998 64.1117 62.5951 64.1953 62.812C64.2788 63.0289 64.3124 63.2618 64.2936 63.4935C64.2583 63.9438 64.0507 64.3631 63.7139 64.6641C63.0647 65.1847 62.3671 65.6418 61.6307 66.0293C60.2244 66.8147 58.8593 67.4954 57.6064 68.1835C56.9951 68.5037 56.4054 68.8635 55.8411 69.2607C55.5833 69.4524 55.3713 69.699 55.2203 69.9825C55.1362 70.1163 55.06 70.2549 54.9921 70.3976C54.9173 70.536 54.85 70.6744 54.7901 70.8165C54.332 71.8509 53.9276 72.9083 53.5784 73.9844C52.9313 75.9292 52.49 77.4738 52.1908 78.5285C52.0449 79.0521 51.9327 79.4523 51.8579 79.7328C51.7831 80.0133 51.7383 80.1442 51.7383 80.1442C51.7383 80.1442 51.7644 79.9984 51.8318 79.7253L52.1422 78.5136C52.4264 77.4551 52.8528 75.8955 53.4886 73.9544C53.834 72.8729 54.2334 71.8094 54.6854 70.7679C54.7453 70.6258 54.8126 70.4837 54.8874 70.3453C54.9622 70.2069 55.0295 70.0573 55.1155 69.9189C55.2774 69.6266 55.4992 69.3717 55.7663 69.1709C56.3335 68.7677 56.927 68.4029 57.5428 68.0788C58.7957 67.3832 60.1609 66.6987 61.5596 65.9096C62.2835 65.5259 62.9696 65.0751 63.6092 64.5632C63.9131 64.2855 64.1014 63.9037 64.1365 63.4935C64.1517 63.2864 64.121 63.0785 64.0466 62.8845C63.9723 62.6906 63.8561 62.5154 63.7064 62.3715L63.669 62.3378V62.278C63.8256 61.6222 63.9343 60.956 63.9944 60.2845C64.0266 59.9464 63.9779 59.6054 63.8523 59.2897C63.7284 58.9714 63.4968 58.7067 63.1978 58.5417L63.1267 58.508L63.1529 58.437C63.2763 58.063 63.4035 57.6889 63.5269 57.285C63.6439 56.8894 63.6347 56.4672 63.5007 56.077C63.4193 55.8961 63.29 55.7409 63.1267 55.6282C62.9462 55.5137 62.7529 55.4208 62.5508 55.3514C62.4963 55.3298 62.4437 55.3035 62.3937 55.2729C62.3563 55.256 62.3233 55.2306 62.2973 55.1988C62.2714 55.167 62.2532 55.1296 62.2441 55.0896C62.239 55.0431 62.2482 54.9962 62.2703 54.955C62.2917 54.9211 62.3197 54.8919 62.3525 54.8689C62.4016 54.8334 62.4528 54.8009 62.5059 54.7717C62.7078 54.667 62.9173 54.5847 63.123 54.4987C63.5419 54.3341 63.9645 54.1845 64.3946 54.0387C66.1038 53.4552 67.8841 52.9166 69.6868 52.3407C69.9112 52.2659 70.1468 52.1948 70.3488 52.1088C70.5447 52.0034 70.7097 51.8487 70.8275 51.66C70.9576 51.4751 71.0344 51.258 71.0496 51.0325C71.0648 50.8069 71.0177 50.5815 70.9135 50.3809C70.8216 50.1803 70.6684 50.014 70.4759 49.9059C70.2563 49.8279 70.0245 49.7899 69.7915 49.7937C69.3054 49.7917 68.82 49.8305 68.3404 49.9096C66.353 50.2477 64.3912 50.7213 62.4685 51.3271C61.627 51.5852 60.7892 51.8432 59.9813 52.1537C59.1735 52.4641 58.3769 52.8082 57.5802 53.1336C56.7915 53.4681 55.9863 53.7627 55.1679 54.0162C54.9622 54.0723 54.7527 54.1209 54.5396 54.1583C54.3197 54.2014 54.0937 54.2014 53.8738 54.1583C53.7479 54.1342 53.6357 54.0634 53.5597 53.9601C53.5264 53.9108 53.5011 53.8565 53.4849 53.7993C53.4635 53.747 53.446 53.6933 53.4325 53.6385C53.3825 53.4315 53.345 53.2217 53.3203 53.0101C53.1483 51.3421 53.253 49.7002 53.0697 48.1219C53.0409 47.7394 52.9293 47.3677 52.7427 47.0325C52.5561 46.6973 52.2989 46.4067 51.9888 46.1808C51.8424 46.0772 51.6733 46.0103 51.4956 45.9855C51.318 45.9608 51.137 45.979 50.9678 46.0387C50.8993 46.0855 50.8411 46.1458 50.7967 46.2159C50.7524 46.286 50.7228 46.3644 50.7097 46.4463C50.6739 46.6287 50.6551 46.814 50.6536 46.9999C50.6536 47.7479 50.7733 48.4959 50.8107 49.2439C50.8274 49.9854 50.7736 50.7267 50.6499 51.458C50.4182 52.8552 50.0072 54.2166 49.4269 55.5085C48.8507 56.6872 48.3922 57.9199 48.0581 59.1887C47.7447 60.3579 47.5061 61.5459 47.3437 62.7455L41.8832 72.5519L40.3872 75.2148C40.2189 75.514 40.088 75.7422 40.0132 75.903C39.9384 76.0638 39.8486 76.1798 39.8486 76.1798Z" fill="#FFA8A7"/>
<path d="M87.0776 121.935C87.2384 121.935 80.6335 116.292 78.5578 115.921C76.482 115.551 72.7532 116.561 72.7532 116.561C72.7532 116.561 73.1796 118.431 74.6232 118.539C75.6685 118.595 76.7159 118.595 77.7611 118.539L80.1024 120.234L78.6961 119.598C78.2273 119.387 77.705 119.326 77.2001 119.422C75.5994 119.729 72.065 120.402 71.7396 120.443C71.3208 120.499 69.7238 120.765 70.7897 123.061C70.7897 123.061 69.1927 124.976 72.3343 125.455C75.4759 125.934 78.5465 126.203 78.5465 126.203L80.9551 127.43C80.9551 127.43 75.3675 127.377 74.4624 127.643C73.5573 127.908 73.662 128.653 74.0884 129.079C74.5148 129.505 80.424 129.24 81.4339 129.932C82.4437 130.624 85.8509 133.178 87.7134 132.965C89.576 132.752 91.921 131.05 92.2389 130.889C92.5568 130.728 112.738 108 112.738 108L100.448 99.6858C100.448 99.6858 89.4226 120.17 88.6372 121.378C87.7957 122.624 87.0776 121.935 87.0776 121.935Z" fill="#FFC4C3"/>
<path d="M83.1402 123.959C82.9766 123.916 82.8176 123.857 82.6652 123.783L81.3973 123.248C80.8587 123.024 80.2229 122.755 79.5048 122.478C79.1495 122.343 78.7568 122.201 78.3828 122.104C77.9672 122.037 77.5442 122.028 77.1262 122.078C75.3646 122.246 73.7826 122.556 72.6381 122.755L71.2805 122.998C71.1155 123.033 70.9479 123.056 70.7793 123.065C70.9355 122.999 71.0986 122.952 71.2655 122.923C71.5797 122.844 72.0397 122.736 72.6082 122.616C74.0898 122.291 75.588 122.048 77.0962 121.887C77.5367 121.831 77.9832 121.842 78.4202 121.921C78.8097 122.035 79.1929 122.17 79.5684 122.324C80.2828 122.609 80.9186 122.889 81.4384 123.132C81.9583 123.375 82.3959 123.577 82.6839 123.723C82.8433 123.787 82.9962 123.866 83.1402 123.959Z" fill="#FFA8A7"/>
<path d="M106.58 101.522C106.58 101.556 106.057 101.44 105.208 101.403C104.709 101.382 104.208 101.4 103.712 101.455C103.111 101.529 102.518 101.654 101.939 101.829C101.362 102.014 100.802 102.251 100.267 102.536C99.8313 102.77 99.4148 103.039 99.0218 103.34C98.3486 103.853 97.9933 104.249 97.9671 104.223C97.9409 104.197 98.0382 104.111 98.199 103.931C98.2929 103.82 98.3941 103.715 98.502 103.617C98.6291 103.501 98.7638 103.363 98.9358 103.243C99.3245 102.921 99.7413 102.634 100.181 102.386C100.722 102.084 101.291 101.834 101.879 101.638C102.47 101.455 103.078 101.33 103.693 101.264C104.191 101.219 104.692 101.219 105.189 101.264C105.382 101.277 105.574 101.299 105.765 101.332C105.91 101.35 106.054 101.378 106.195 101.414C106.329 101.43 106.459 101.466 106.58 101.522Z" fill="#FFA8A7"/>
</g>
</svg>
